<svg xmlns="http://www.w3.org/2000/svg" width="375" viewBox="0 0 375 375" height="375" version="1.0"><defs><clipPath id="a"><path d="M 300 274 L 360.75 274 L 360.75 331 L 300 331 Z M 300 274"/></clipPath><clipPath id="b"><path d="M 37.5 38.871094 L 337 38.871094 L 337 337.371094 L 37.5 337.371094 Z M 37.5 38.871094"/></clipPath></defs><g clip-path="url(#a)"><path fill="#161616" d="M 308.988281 274.308594 C 308.988281 274.308594 319.15625 298.347656 336.421875 297.632812 C 353.691406 296.847656 360.402344 290.660156 360.402344 290.660156 L 355.125 330.660156 C 355.125 330.660156 303.710938 332.09375 300.191406 285.578125 C 299.539062 276.71875 308.988281 274.308594 308.988281 274.308594 Z M 308.988281 274.308594"/></g><path fill="#161616" d="M 289.699219 188.121094 C 289.699219 189.796875 289.660156 191.476562 289.578125 193.152344 C 289.496094 194.828125 289.371094 196.5 289.207031 198.171875 C 289.042969 199.839844 288.835938 201.507812 288.589844 203.167969 C 288.34375 204.828125 288.058594 206.480469 287.730469 208.125 C 287.402344 209.769531 287.035156 211.40625 286.628906 213.035156 C 286.21875 214.664062 285.773438 216.28125 285.285156 217.886719 C 284.796875 219.492188 284.269531 221.085938 283.707031 222.664062 C 283.140625 224.246094 282.535156 225.808594 281.894531 227.359375 C 281.25 228.910156 280.570312 230.445312 279.851562 231.960938 C 279.136719 233.480469 278.382812 234.976562 277.589844 236.457031 C 276.796875 237.9375 275.972656 239.398438 275.109375 240.835938 C 274.246094 242.277344 273.347656 243.695312 272.414062 245.089844 C 271.484375 246.484375 270.515625 247.855469 269.515625 249.203125 C 268.515625 250.550781 267.484375 251.875 266.417969 253.171875 C 265.355469 254.46875 264.257812 255.738281 263.132812 256.980469 C 262.003906 258.226562 260.847656 259.441406 259.660156 260.628906 C 258.472656 261.8125 257.257812 262.972656 256.015625 264.097656 C 254.769531 265.226562 253.5 266.320312 252.203125 267.386719 C 250.90625 268.449219 249.582031 269.480469 248.234375 270.480469 C 246.886719 271.480469 245.511719 272.445312 244.117188 273.378906 C 242.722656 274.3125 241.304688 275.210938 239.863281 276.070312 C 238.425781 276.933594 236.964844 277.761719 235.484375 278.554688 C 234.003906 279.34375 232.503906 280.097656 230.988281 280.816406 C 229.46875 281.53125 227.9375 282.214844 226.386719 282.855469 C 224.835938 283.496094 223.269531 284.101562 221.6875 284.667969 C 220.109375 285.230469 218.515625 285.757812 216.910156 286.246094 C 215.300781 286.730469 213.683594 287.179688 212.054688 287.585938 C 210.429688 287.996094 208.789062 288.363281 207.144531 288.691406 C 205.5 289.019531 203.84375 289.304688 202.183594 289.550781 C 200.523438 289.796875 198.859375 290.003906 197.1875 290.167969 C 195.519531 290.332031 193.84375 290.453125 192.167969 290.535156 C 190.492188 290.621094 188.8125 290.660156 187.136719 290.660156 C 185.457031 290.660156 183.777344 290.621094 182.101562 290.535156 C 180.425781 290.453125 178.753906 290.332031 177.082031 290.167969 C 175.410156 290.003906 173.746094 289.796875 172.085938 289.550781 C 170.425781 289.304688 168.773438 289.019531 167.125 288.691406 C 165.480469 288.363281 163.84375 287.996094 162.214844 287.585938 C 160.585938 287.179688 158.96875 286.730469 157.363281 286.246094 C 155.753906 285.757812 154.164062 285.230469 152.582031 284.667969 C 151 284.101562 149.4375 283.496094 147.886719 282.855469 C 146.335938 282.214844 144.800781 281.53125 143.28125 280.816406 C 141.765625 280.097656 140.265625 279.34375 138.785156 278.554688 C 137.304688 277.761719 135.84375 276.933594 134.40625 276.070312 C 132.964844 275.210938 131.546875 274.3125 130.152344 273.378906 C 128.757812 272.445312 127.386719 271.480469 126.035156 270.480469 C 124.6875 269.480469 123.367188 268.449219 122.066406 267.386719 C 120.769531 266.320312 119.5 265.226562 118.257812 264.097656 C 117.011719 262.972656 115.796875 261.8125 114.609375 260.628906 C 113.421875 259.441406 112.265625 258.226562 111.140625 256.980469 C 110.011719 255.738281 108.914062 254.46875 107.851562 253.171875 C 106.785156 251.875 105.753906 250.550781 104.753906 249.203125 C 103.753906 247.855469 102.789062 246.484375 101.855469 245.089844 C 100.921875 243.695312 100.023438 242.277344 99.160156 240.835938 C 98.296875 239.398438 97.472656 237.9375 96.679688 236.457031 C 95.890625 234.976562 95.132812 233.480469 94.417969 231.960938 C 93.699219 230.445312 93.019531 228.910156 92.375 227.359375 C 91.734375 225.808594 91.128906 224.246094 90.566406 222.664062 C 90 221.085938 89.472656 219.492188 88.984375 217.886719 C 88.5 216.28125 88.050781 214.664062 87.644531 213.035156 C 87.234375 211.40625 86.867188 209.769531 86.539062 208.125 C 86.210938 206.480469 85.925781 204.828125 85.679688 203.167969 C 85.433594 201.507812 85.226562 199.839844 85.0625 198.171875 C 84.898438 196.5 84.773438 194.828125 84.691406 193.152344 C 84.609375 191.476562 84.570312 189.796875 84.570312 188.121094 C 84.570312 186.441406 84.609375 184.765625 84.691406 183.089844 C 84.773438 181.414062 84.898438 179.738281 85.0625 178.070312 C 85.226562 176.398438 85.433594 174.734375 85.679688 173.074219 C 85.925781 171.414062 86.210938 169.761719 86.539062 168.117188 C 86.867188 166.46875 87.234375 164.832031 87.644531 163.207031 C 88.050781 161.578125 88.5 159.960938 88.984375 158.355469 C 89.472656 156.75 90 155.15625 90.566406 153.574219 C 91.128906 151.996094 91.734375 150.429688 92.375 148.878906 C 93.019531 147.328125 93.699219 145.796875 94.417969 144.277344 C 95.132812 142.761719 95.890625 141.261719 96.679688 139.785156 C 97.472656 138.304688 98.296875 136.84375 99.160156 135.40625 C 100.023438 133.964844 100.921875 132.546875 101.855469 131.152344 C 102.789062 129.757812 103.753906 128.386719 104.753906 127.039062 C 105.753906 125.691406 106.785156 124.367188 107.851562 123.070312 C 108.914062 121.773438 110.011719 120.503906 111.140625 119.257812 C 112.265625 118.015625 113.421875 116.800781 114.609375 115.613281 C 115.796875 114.425781 117.011719 113.269531 118.257812 112.144531 C 119.5 111.015625 120.769531 109.921875 122.066406 108.855469 C 123.367188 107.792969 124.6875 106.757812 126.035156 105.757812 C 127.386719 104.761719 128.757812 103.792969 130.152344 102.863281 C 131.546875 101.929688 132.964844 101.03125 134.40625 100.167969 C 135.84375 99.304688 137.304688 98.480469 138.785156 97.6875 C 140.265625 96.898438 141.765625 96.144531 143.28125 95.425781 C 144.800781 94.707031 146.335938 94.027344 147.886719 93.386719 C 149.4375 92.742188 151 92.140625 152.582031 91.574219 C 154.164062 91.007812 155.753906 90.484375 157.363281 89.996094 C 158.96875 89.507812 160.585938 89.0625 162.214844 88.652344 C 163.84375 88.246094 165.480469 87.878906 167.125 87.550781 C 168.773438 87.222656 170.425781 86.9375 172.085938 86.691406 C 173.746094 86.445312 175.410156 86.238281 177.082031 86.074219 C 178.753906 85.910156 180.425781 85.785156 182.101562 85.703125 C 183.777344 85.621094 185.457031 85.582031 187.136719 85.582031 C 188.8125 85.582031 190.492188 85.621094 192.167969 85.703125 C 193.84375 85.785156 195.519531 85.910156 197.1875 86.074219 C 198.859375 86.238281 200.523438 86.445312 202.183594 86.691406 C 203.84375 86.9375 205.5 87.222656 207.144531 87.550781 C 208.789062 87.878906 210.429688 88.246094 212.054688 88.652344 C 213.683594 89.0625 215.300781 89.507812 216.910156 89.996094 C 218.515625 90.484375 220.109375 91.007812 221.6875 91.574219 C 223.269531 92.140625 224.835938 92.742188 226.386719 93.386719 C 227.9375 94.027344 229.46875 94.707031 230.988281 95.425781 C 232.503906 96.144531 234.003906 96.898438 235.484375 97.6875 C 236.964844 98.480469 238.425781 99.304688 239.863281 100.167969 C 241.304688 101.03125 242.722656 101.929688 244.117188 102.863281 C 245.511719 103.792969 246.886719 104.761719 248.234375 105.757812 C 249.582031 106.757812 250.90625 107.792969 252.203125 108.855469 C 253.5 109.921875 254.769531 111.015625 256.015625 112.144531 C 257.257812 113.269531 258.472656 114.425781 259.660156 115.613281 C 260.847656 116.800781 262.003906 118.015625 263.132812 119.257812 C 264.257812 120.503906 265.355469 121.773438 266.417969 123.070312 C 267.484375 124.367188 268.515625 125.691406 269.515625 127.039062 C 270.515625 128.386719 271.484375 129.757812 272.414062 131.152344 C 273.347656 132.546875 274.246094 133.964844 275.109375 135.40625 C 275.972656 136.84375 276.796875 138.304688 277.589844 139.785156 C 278.382812 141.261719 279.136719 142.761719 279.851562 144.277344 C 280.570312 145.796875 281.25 147.328125 281.894531 148.878906 C 282.535156 150.429688 283.140625 151.996094 283.707031 153.574219 C 284.269531 155.15625 284.796875 156.75 285.285156 158.355469 C 285.773438 159.960938 286.21875 161.578125 286.628906 163.207031 C 287.035156 164.832031 287.402344 166.46875 287.730469 168.117188 C 288.058594 169.761719 288.34375 171.414062 288.589844 173.074219 C 288.835938 174.734375 289.042969 176.398438 289.207031 178.070312 C 289.371094 179.738281 289.496094 181.414062 289.578125 183.089844 C 289.660156 184.765625 289.699219 186.441406 289.699219 188.121094 Z M 289.699219 188.121094"/><g clip-path="url(#b)"><path fill="#CCCCCE" d="M 187.136719 38.871094 C 104.703125 38.871094 37.847656 105.710938 37.847656 188.121094 C 37.847656 270.53125 104.703125 337.371094 187.136719 337.371094 C 269.566406 337.371094 336.421875 270.53125 336.421875 188.121094 C 336.421875 105.710938 269.566406 38.871094 187.136719 38.871094 Z M 187.136719 65.386719 C 209.746094 65.386719 227.992188 83.691406 227.992188 106.230469 C 227.992188 128.773438 209.679688 147.078125 187.136719 147.078125 C 164.589844 147.078125 146.277344 128.773438 146.277344 106.230469 C 146.277344 83.691406 164.523438 65.386719 187.136719 65.386719 Z M 213.785156 183.363281 C 213.785156 186.167969 211.570312 188.382812 208.769531 188.382812 C 205.96875 188.382812 203.75 186.167969 203.75 183.363281 C 203.75 180.5625 205.96875 178.347656 208.769531 178.347656 C 211.570312 178.347656 213.785156 180.5625 213.785156 183.363281 Z M 192.152344 161.671875 C 192.152344 164.472656 189.9375 166.6875 187.136719 166.6875 C 184.332031 166.6875 182.117188 164.472656 182.117188 161.671875 C 182.117188 158.871094 184.332031 156.65625 187.136719 156.65625 C 189.871094 156.65625 192.152344 158.933594 192.152344 161.671875 Z M 170.453125 183.363281 C 170.453125 186.167969 168.238281 188.382812 165.4375 188.382812 C 162.632812 188.382812 160.417969 186.167969 160.417969 183.363281 C 160.417969 180.5625 162.632812 178.347656 165.4375 178.347656 C 168.238281 178.347656 170.453125 180.5625 170.453125 183.363281 Z M 68.667969 165.125 C 68.667969 142.582031 86.980469 124.277344 109.527344 124.277344 C 132.074219 124.277344 150.382812 142.582031 150.382812 165.125 C 150.382812 187.664062 132.074219 205.96875 109.527344 205.96875 C 86.980469 205.96875 68.667969 187.730469 68.667969 165.125 Z M 138.003906 294.632812 C 115.457031 294.632812 97.144531 276.328125 97.144531 253.789062 C 97.144531 231.246094 115.457031 212.941406 138.003906 212.941406 C 160.613281 212.941406 178.859375 231.246094 178.859375 253.789062 C 178.859375 276.328125 160.546875 294.632812 138.003906 294.632812 Z M 175.730469 183.363281 C 175.730469 177.046875 180.8125 171.964844 187.136719 171.964844 C 193.457031 171.964844 198.539062 177.046875 198.539062 183.363281 C 198.539062 189.683594 193.457031 194.765625 187.136719 194.765625 C 180.8125 194.765625 175.730469 189.617188 175.730469 183.363281 Z M 187.136719 210.007812 C 184.332031 210.007812 182.117188 207.792969 182.117188 204.992188 C 182.117188 202.191406 184.332031 199.976562 187.136719 199.976562 C 189.9375 199.976562 192.152344 202.191406 192.152344 204.992188 C 192.152344 207.792969 189.871094 210.007812 187.136719 210.007812 Z M 235.484375 294.632812 C 212.9375 294.632812 194.628906 276.328125 194.628906 253.789062 C 194.628906 231.246094 212.9375 212.941406 235.484375 212.941406 C 258.097656 212.941406 276.34375 231.246094 276.34375 253.789062 C 276.40625 276.328125 258.097656 294.632812 235.484375 294.632812 Z M 264.679688 206.035156 C 242.132812 206.035156 223.820312 187.730469 223.820312 165.1875 C 223.820312 142.648438 242.132812 124.277344 264.679688 124.277344 C 287.289062 124.277344 305.535156 142.582031 305.535156 165.125 C 305.535156 187.664062 287.289062 206.035156 264.679688 206.035156 Z M 264.679688 206.035156"/></g><path fill="#B4B4B5" d="M 188.113281 325.515625 C 112.328125 325.515625 50.621094 263.886719 50.621094 188.054688 C 50.621094 112.289062 112.261719 50.597656 188.113281 50.597656 C 263.898438 50.597656 325.605469 112.226562 325.605469 188.054688 C 325.539062 263.886719 263.898438 325.515625 188.113281 325.515625 Z M 188.113281 57.175781 C 115.914062 57.175781 57.136719 115.9375 57.136719 188.121094 C 57.136719 260.300781 115.914062 319.0625 188.113281 319.0625 C 260.3125 319.0625 319.089844 260.300781 319.089844 188.121094 C 319.023438 115.9375 260.3125 57.175781 188.113281 57.175781 Z M 188.113281 57.175781"/></svg>