<svg xmlns="http://www.w3.org/2000/svg" width="375" viewBox="0 0 375 375" height="375" version="1.0"><defs><clipPath id="a"><path d="M 142 24 L 253 24 L 253 361.5 L 142 361.5 Z M 142 24"/></clipPath></defs><g clip-path="url(#a)"><path fill="#49BFA5" d="M 196.980469 323.125 C 172.277344 323.125 152.257812 264.753906 152.257812 192.75 C 152.257812 120.746094 172.277344 62.386719 196.980469 62.386719 C 221.679688 62.386719 241.699219 120.746094 241.699219 192.75 C 241.699219 264.753906 221.679688 323.125 196.980469 323.125 Z M 197.648438 24 C 167.421875 24 142.917969 99.554688 142.917969 192.75 C 142.917969 285.945312 167.421875 361.5 197.648438 361.5 C 227.878906 361.5 252.390625 285.945312 252.390625 192.75 C 252.390625 99.554688 227.878906 24 197.648438 24"/></g><path fill="#49BFA5" d="M 164.632812 219.972656 C 106.910156 176.929688 72.089844 125.976562 86.859375 106.1875 C 101.625 86.390625 160.390625 105.234375 218.121094 148.289062 C 275.839844 191.332031 310.660156 242.277344 295.894531 262.074219 C 281.125 281.871094 222.363281 263.019531 164.632812 219.972656 Z M 158.246094 228.53125 C 232.964844 284.253906 308.191406 309.789062 326.265625 285.5625 C 344.339844 261.328125 298.421875 196.519531 223.703125 140.796875 C 148.984375 85.074219 73.769531 59.539062 55.683594 83.777344 C 37.609375 108 83.527344 172.808594 158.246094 228.53125"/><path fill="#49BFA5" d="M 86.054688 262.074219 C 71.289062 242.277344 106.109375 191.332031 163.839844 148.289062 C 221.558594 105.234375 280.324219 86.390625 295.09375 106.1875 C 309.859375 125.976562 275.039062 176.929688 217.320312 219.972656 C 159.585938 263.019531 100.824219 281.871094 86.054688 262.074219 Z M 326.265625 83.777344 C 308.191406 59.539062 232.964844 85.074219 158.246094 140.796875 C 83.527344 196.519531 37.609375 261.328125 55.683594 285.5625 C 73.761719 309.789062 148.984375 284.253906 223.703125 228.53125 C 298.421875 172.808594 344.339844 108 326.265625 83.777344"/><path fill="#F6CE63" d="M 94.855469 78.460938 C 94.855469 88.773438 86.484375 97.148438 76.167969 97.148438 C 65.839844 97.148438 57.476562 88.773438 57.476562 78.460938 C 57.476562 68.132812 65.839844 59.769531 76.167969 59.769531 C 86.484375 59.769531 94.855469 68.132812 94.855469 78.460938"/><path fill="#FF6966" d="M 89.605469 70.824219 C 89.605469 75.425781 85.871094 79.164062 81.265625 79.164062 C 76.660156 79.164062 72.925781 75.425781 72.925781 70.824219 C 72.925781 66.21875 76.660156 62.484375 81.265625 62.484375 C 85.871094 62.484375 89.605469 66.21875 89.605469 70.824219"/><path fill="#2A7980" d="M 180.300781 321.398438 C 180.300781 331.714844 171.925781 340.085938 161.609375 340.085938 C 151.28125 340.085938 142.917969 331.714844 142.917969 321.398438 C 142.917969 311.074219 151.28125 302.710938 161.609375 302.710938 C 171.925781 302.710938 180.300781 311.074219 180.300781 321.398438"/><path fill="#F6CE63" d="M 161.699219 321.773438 C 161.699219 326.375 157.960938 330.113281 153.359375 330.113281 C 148.753906 330.113281 145.019531 326.375 145.019531 321.773438 C 145.019531 317.171875 148.753906 313.433594 153.359375 313.433594 C 157.960938 313.433594 161.699219 317.171875 161.699219 321.773438"/><path fill="#FF6966" d="M 316.472656 211.941406 C 316.472656 222.257812 308.101562 230.628906 297.773438 230.628906 C 287.457031 230.628906 279.082031 222.257812 279.082031 211.941406 C 279.082031 201.617188 287.457031 193.253906 297.773438 193.253906 C 308.101562 193.253906 316.472656 201.617188 316.472656 211.941406"/><path fill="#F6CE63" d="M 305.882812 220.324219 C 305.882812 224.929688 302.144531 228.664062 297.542969 228.664062 C 292.925781 228.664062 289.191406 224.929688 289.191406 220.324219 C 289.191406 215.722656 292.925781 211.988281 297.542969 211.988281 C 302.144531 211.988281 305.882812 215.722656 305.882812 220.324219"/><path fill="#F6CE63" d="M 224.878906 182.984375 C 224.878906 198.980469 211.902344 211.941406 195.914062 211.941406 C 179.914062 211.941406 166.949219 198.980469 166.949219 182.984375 C 166.949219 166.988281 179.914062 154.023438 195.914062 154.023438 C 211.902344 154.023438 224.878906 166.988281 224.878906 182.984375"/><path fill="#FF6966" d="M 216.738281 173.820312 C 216.738281 180.960938 210.957031 186.75 203.816406 186.75 C 196.671875 186.75 190.890625 180.960938 190.890625 173.820312 C 190.890625 166.679688 196.671875 160.902344 203.816406 160.902344 C 210.957031 160.902344 216.738281 166.679688 216.738281 173.820312"/></svg>