<svg xmlns="http://www.w3.org/2000/svg" width="375" viewBox="0 0 375 375" height="375" version="1.0"><defs><clipPath id="a"><path d="M 13.394531 13.394531 L 361 13.394531 L 361 361 L 13.394531 361 Z M 13.394531 13.394531"/></clipPath><clipPath id="b"><path d="M 190 182 L 215.382812 182 L 215.382812 222 L 190 222 Z M 190 182"/></clipPath><clipPath id="c"><path d="M 169.21875 174.691406 L 190.582031 174.691406 L 190.582031 228.355469 L 169.21875 228.355469 Z M 169.21875 174.691406"/></clipPath></defs><g clip-path="url(#a)"><path fill="#8BC94D" d="M 186.582031 12.582031 C 90.484375 12.582031 12.582031 90.484375 12.582031 186.582031 C 12.582031 282.683594 90.484375 360.582031 186.582031 360.582031 C 282.683594 360.582031 360.582031 282.683594 360.582031 186.582031 C 360.582031 90.484375 282.683594 12.582031 186.582031 12.582031 Z M 186.582031 12.582031"/></g><path fill="#ECEFF1" d="M 186.582031 150.164062 C 135.183594 150.164062 93.515625 191.835938 93.515625 243.234375 C 93.515625 249.9375 98.949219 255.375 105.652344 255.375 L 267.515625 255.375 C 274.21875 255.375 279.652344 249.9375 279.652344 243.234375 C 279.652344 191.835938 237.984375 150.164062 186.582031 150.164062 Z M 186.582031 150.164062"/><path fill="#ECEFF1" d="M 259.101562 120.605469 C 264.25 124.898438 264.945312 132.554688 260.652344 137.703125 L 228.28125 176.550781 C 223.988281 181.699219 216.335938 182.394531 211.183594 178.105469 C 206.035156 173.8125 205.339844 166.15625 209.632812 161.007812 L 242.003906 122.160156 C 246.292969 117.011719 253.949219 116.3125 259.101562 120.605469 Z M 259.101562 120.605469" fill-rule="evenodd"/><path fill="#ECEFF1" d="M 114.066406 120.605469 C 108.917969 124.898438 108.222656 132.554688 112.511719 137.703125 L 144.886719 176.550781 C 149.175781 181.699219 156.832031 182.394531 161.980469 178.105469 C 167.132812 173.8125 167.828125 166.15625 163.535156 161.007812 L 131.164062 122.160156 C 126.871094 117.011719 119.21875 116.3125 114.066406 120.605469 Z M 114.066406 120.605469" fill-rule="evenodd"/><g clip-path="url(#b)"><path fill="#8BC94D" d="M 214.859375 200.46875 L 196.933594 182.464844 C 196.375 181.90625 195.390625 181.90625 194.835938 182.464844 L 190.949219 186.367188 C 190.367188 186.949219 190.367188 187.894531 190.949219 188.476562 L 203.933594 201.519531 L 190.949219 214.566406 C 190.367188 215.148438 190.367188 216.09375 190.949219 216.679688 L 194.835938 220.578125 C 195.113281 220.859375 195.492188 221.015625 195.886719 221.015625 C 196.277344 221.015625 196.65625 220.859375 196.933594 220.578125 L 214.859375 202.578125 C 215.441406 201.996094 215.441406 201.050781 214.859375 200.46875 Z M 214.859375 200.46875"/></g><path fill="#8BC94D" d="M 169.410156 214.566406 L 156.425781 201.519531 L 169.414062 188.476562 C 169.691406 188.199219 169.847656 187.820312 169.847656 187.421875 C 169.847656 187.027344 169.695312 186.648438 169.414062 186.367188 L 165.527344 182.464844 C 165.25 182.1875 164.871094 182.027344 164.476562 182.027344 C 164.085938 182.027344 163.703125 182.1875 163.425781 182.464844 L 145.503906 200.46875 C 144.921875 201.050781 144.921875 201.996094 145.503906 202.578125 L 163.421875 220.578125 C 163.703125 220.859375 164.082031 221.015625 164.476562 221.015625 C 164.867188 221.015625 165.25 220.859375 165.527344 220.578125 L 169.410156 216.679688 C 169.992188 216.09375 169.992188 215.148438 169.410156 214.566406 Z M 169.410156 214.566406"/><g clip-path="url(#c)"><path fill="#8BC94D" d="M 190.371094 176.40625 C 190.183594 176.058594 189.863281 175.800781 189.484375 175.6875 L 186.335938 174.753906 C 185.550781 174.523438 184.722656 174.972656 184.488281 175.765625 L 169.867188 225.507812 C 169.753906 225.886719 169.796875 226.296875 169.988281 226.644531 C 170.175781 226.988281 170.496094 227.25 170.871094 227.359375 L 174.023438 228.292969 C 174.164062 228.335938 174.304688 228.355469 174.441406 228.355469 C 175.085938 228.355469 175.675781 227.9375 175.867188 227.289062 L 190.492188 177.542969 C 190.605469 177.164062 190.558594 176.757812 190.371094 176.40625 Z M 190.371094 176.40625"/></g></svg>