<svg xmlns="http://www.w3.org/2000/svg" xmlns:xlink="http://www.w3.org/1999/xlink" width="375" viewBox="0 0 375 375" height="375" version="1.0"><defs><clipPath id="b"><path d="M 15.675781 15.675781 L 359.175781 15.675781 L 359.175781 359.175781 L 15.675781 359.175781 Z M 15.675781 15.675781"/></clipPath><clipPath id="d"><path d="M0 0H39V9H0z"/></clipPath><clipPath id="g"><path d="M 0.199219 2 L 7 2 L 7 7 L 0.199219 7 Z M 0.199219 2"/></clipPath><clipPath id="f"><path d="M0 0H36V9H0z"/></clipPath><mask id="c"><g filter="url(#a)"><path fill-opacity=".298" d="M-37.5 -37.5H412.5V412.5H-37.5z"/></g></mask><mask id="e"><g filter="url(#a)"><path fill-opacity=".298" d="M-37.5 -37.5H412.5V412.5H-37.5z"/></g></mask><filter x="0%" y="0%" width="100%" xmlns:xlink="http://www.w3.org/1999/xlink" xlink:type="simple" xlink:actuate="onLoad" height="100%" id="a" xlink:show="other"><feColorMatrix values="0 0 0 0 1 0 0 0 0 1 0 0 0 0 1 0 0 0 1 0" color-interpolation-filters="sRGB"/></filter></defs><g clip-path="url(#b)"><path fill="#FFBC50" d="M 359.183594 187.425781 C 359.183594 282.28125 282.304688 359.210938 187.402344 359.210938 C 92.550781 359.210938 15.667969 282.28125 15.667969 187.425781 C 15.667969 92.574219 92.550781 15.644531 187.402344 15.644531 C 282.304688 15.644531 359.183594 92.574219 359.183594 187.425781 Z M 359.183594 187.425781"/></g><path fill="#24272B" d="M 309.351562 97.15625 L 309.351562 272.332031 C 309.351562 286.363281 297.980469 297.734375 283.949219 297.734375 L 90.90625 297.734375 C 76.875 297.734375 65.5 286.363281 65.5 272.332031 L 65.5 97.15625 C 65.5 83.125 76.875 71.753906 90.90625 71.753906 L 283.949219 71.753906 C 297.980469 71.753906 309.351562 83.125 309.351562 97.15625 Z M 309.351562 97.15625"/><path fill="#FFF" d="M 292.363281 137.1875 L 292.363281 269.683594 C 292.363281 276.394531 286.875 281.886719 280.164062 281.886719 L 94.722656 281.886719 C 87.984375 281.886719 82.519531 276.371094 82.519531 269.683594 L 82.519531 137.1875 C 82.519531 129.101562 89.074219 122.546875 97.160156 122.546875 L 277.722656 122.546875 C 285.808594 122.546875 292.363281 129.101562 292.363281 137.1875 Z M 292.363281 137.1875"/><path fill="#E5F5F9" d="M 291.984375 133.792969 C 290.890625 133.507812 289.746094 133.375 288.546875 133.375 L 107.96875 133.375 C 99.898438 133.375 93.335938 139.914062 93.335938 148.011719 L 93.335938 280.515625 C 93.335938 280.957031 93.363281 281.425781 93.414062 281.84375 C 87.320312 281.164062 82.527344 275.929688 82.527344 269.679688 L 82.527344 137.179688 C 82.527344 129.105469 89.066406 122.542969 97.164062 122.542969 L 277.714844 122.542969 C 284.640625 122.542969 290.449219 127.335938 291.984375 133.792969 Z M 291.984375 133.792969"/><path fill="#43A1FF" d="M 108.132812 97.285156 C 108.132812 102.042969 104.246094 105.929688 99.488281 105.929688 C 94.726562 105.929688 90.839844 102.042969 90.839844 97.285156 C 90.839844 92.523438 94.726562 88.636719 99.488281 88.636719 C 104.246094 88.636719 108.132812 92.523438 108.132812 97.285156 Z M 108.132812 97.285156"/><path fill="#2C8CFF" d="M 107.164062 101.214844 C 105.730469 104.003906 102.839844 105.929688 99.480469 105.929688 C 94.714844 105.929688 90.835938 102.046875 90.835938 97.28125 C 90.835938 93.921875 92.761719 90.980469 95.601562 89.574219 C 94.976562 90.746094 94.636719 92.074219 94.636719 93.507812 C 94.636719 98.273438 98.519531 102.152344 103.285156 102.152344 C 104.664062 102.152344 105.992188 101.8125 107.164062 101.214844 Z M 107.164062 101.214844"/><path fill="#4FE88D" d="M 138.160156 97.285156 C 138.160156 102.042969 134.273438 105.929688 129.511719 105.929688 C 124.75 105.929688 120.863281 102.042969 120.863281 97.285156 C 120.863281 92.523438 124.75 88.636719 129.511719 88.636719 C 134.273438 88.636719 138.160156 92.523438 138.160156 97.285156 Z M 138.160156 97.285156"/><path fill="#35D175" d="M 137.191406 101.214844 C 135.757812 104.003906 132.867188 105.929688 129.507812 105.929688 C 124.742188 105.929688 120.863281 102.046875 120.863281 97.28125 C 120.863281 93.921875 122.789062 91.007812 125.601562 89.574219 C 124.976562 90.746094 124.636719 92.074219 124.636719 93.507812 C 124.636719 98.273438 128.542969 102.152344 133.285156 102.152344 C 134.691406 102.152344 136.019531 101.8125 137.191406 101.214844 Z M 137.191406 101.214844"/><path fill="#FC545D" d="M 168.183594 97.285156 C 168.183594 102.042969 164.296875 105.929688 159.535156 105.929688 C 154.777344 105.929688 150.890625 102.042969 150.890625 97.285156 C 150.890625 92.523438 154.777344 88.636719 159.535156 88.636719 C 164.296875 88.636719 168.183594 92.523438 168.183594 97.285156 Z M 168.183594 97.285156"/><path fill="#F14448" d="M 167.242188 101.214844 C 165.785156 104.003906 162.894531 105.929688 159.535156 105.929688 C 154.769531 105.929688 150.886719 102.046875 150.886719 97.28125 C 150.886719 93.921875 152.816406 91.03125 155.601562 89.574219 C 155.003906 90.746094 154.664062 92.074219 154.664062 93.507812 C 154.664062 98.273438 158.570312 102.152344 163.308594 102.152344 C 164.714844 102.152344 166.070312 101.8125 167.242188 101.214844 Z M 167.242188 101.214844"/><path fill="#13181E" d="M 275.660156 104.019531 L 189.050781 104.019531 C 185.707031 104.019531 183 101.3125 183 97.96875 C 183 94.621094 185.707031 91.914062 189.050781 91.914062 L 275.660156 91.914062 C 279.003906 91.914062 281.710938 94.621094 281.710938 97.96875 C 281.710938 101.3125 279.003906 104.019531 275.660156 104.019531 Z M 275.660156 104.019531"/><path d="M 281.257812 95.632812 C 280.53125 95.328125 279.746094 95.148438 278.898438 95.148438 L 192.304688 95.148438 C 188.976562 95.148438 186.253906 97.871094 186.253906 101.199219 C 186.253906 102.046875 186.433594 102.832031 186.734375 103.558594 C 184.558594 102.652344 182.984375 100.535156 182.984375 97.992188 C 182.984375 94.605469 185.707031 91.941406 189.035156 91.941406 L 275.6875 91.941406 C 278.171875 91.941406 280.347656 93.453125 281.257812 95.632812 Z M 281.257812 95.632812"/><path fill="#FFF" d="M 297.390625 234.894531 L 297.390625 180.304688 C 297.390625 178.425781 298.910156 176.90625 300.789062 176.90625 C 302.664062 176.90625 304.183594 178.425781 304.183594 180.304688 L 304.183594 234.894531 C 304.183594 236.773438 302.664062 238.292969 300.789062 238.292969 C 298.910156 238.292969 297.390625 236.773438 297.390625 234.894531 Z M 297.390625 234.894531" fill-opacity=".298"/><path fill="#FFF" d="M 187.425781 77.378906 L 242.019531 77.378906 C 243.894531 77.378906 245.414062 78.898438 245.414062 80.777344 C 245.414062 82.652344 243.894531 84.171875 242.019531 84.171875 L 187.425781 84.171875 C 185.546875 84.171875 184.027344 82.652344 184.027344 80.777344 C 184.027344 78.898438 185.546875 77.378906 187.425781 77.378906 Z M 187.425781 77.378906" fill-opacity=".298"/><path fill="#43A1FF" d="M 119.609375 215.621094 C 119.609375 217.769531 117.867188 219.511719 115.71875 219.511719 L 102.890625 219.511719 C 100.742188 219.511719 99 217.769531 99 215.621094 C 99 213.472656 100.742188 211.730469 102.890625 211.730469 L 115.71875 211.730469 C 117.867188 211.730469 119.609375 213.472656 119.609375 215.621094 Z M 119.609375 215.621094"/><path fill="#FC545D" d="M 119.609375 152.476562 C 119.609375 154.621094 117.867188 156.367188 115.71875 156.367188 L 102.890625 156.367188 C 100.742188 156.367188 99 154.621094 99 152.476562 C 99 150.328125 100.742188 148.585938 102.890625 148.585938 L 115.71875 148.585938 C 117.867188 148.585938 119.609375 150.328125 119.609375 152.476562 Z M 119.609375 152.476562"/><path fill="#FFBC50" d="M 119.609375 257.699219 C 119.609375 259.847656 117.867188 261.589844 115.71875 261.589844 L 102.890625 261.589844 C 100.742188 261.589844 99 259.847656 99 257.699219 C 99 255.554688 100.742188 253.808594 102.890625 253.808594 L 115.71875 253.808594 C 117.867188 253.808594 119.609375 255.554688 119.609375 257.699219 Z M 119.609375 257.699219"/><path fill="#4FE88D" d="M 119.609375 194.554688 C 119.609375 196.703125 117.867188 198.445312 115.71875 198.445312 L 102.890625 198.445312 C 100.742188 198.445312 99 196.703125 99 194.554688 C 99 192.40625 100.742188 190.664062 102.890625 190.664062 L 115.71875 190.664062 C 117.867188 190.664062 119.609375 192.40625 119.609375 194.554688 Z M 119.609375 194.554688"/><path fill="#D3E6ED" d="M 132.570312 175.554688 C 132.570312 173.40625 134.316406 171.664062 136.460938 171.664062 L 232.910156 171.664062 C 235.058594 171.664062 236.800781 173.40625 236.800781 175.554688 C 236.800781 177.703125 235.058594 179.445312 232.910156 179.445312 L 136.460938 179.445312 C 134.316406 179.445312 132.570312 177.703125 132.570312 175.554688 Z M 132.570312 175.554688"/><path fill="#C0D7DD" d="M 173.066406 179.445312 L 136.464844 179.445312 C 134.316406 179.445312 132.570312 177.703125 132.570312 175.554688 C 132.570312 173.40625 134.316406 171.664062 136.464844 171.664062 L 173.066406 171.664062 C 170.921875 171.664062 169.175781 173.40625 169.175781 175.554688 C 169.175781 177.703125 170.921875 179.445312 173.066406 179.445312 Z M 173.066406 179.445312"/><path fill="#D3E6ED" d="M 132.570312 152.476562 C 132.570312 150.328125 134.316406 148.585938 136.460938 148.585938 L 162.921875 148.585938 C 165.070312 148.585938 166.8125 150.328125 166.8125 152.476562 C 166.8125 154.621094 165.070312 156.367188 162.921875 156.367188 L 136.460938 156.367188 C 134.316406 156.367188 132.570312 154.621094 132.570312 152.476562 Z M 132.570312 152.476562"/><path fill="#C0D7DD" d="M 154.953125 156.367188 L 136.464844 156.367188 C 134.316406 156.367188 132.570312 154.621094 132.570312 152.476562 C 132.570312 150.328125 134.316406 148.585938 136.464844 148.585938 L 154.953125 148.585938 C 152.804688 148.585938 151.0625 150.328125 151.0625 152.476562 C 151.0625 154.621094 152.804688 156.367188 154.953125 156.367188 Z M 154.953125 156.367188"/><path fill="#D3E6ED" d="M 134.960938 240.550781 C 132.8125 240.550781 131.070312 238.808594 131.070312 236.660156 C 131.070312 234.511719 132.8125 232.769531 134.960938 232.769531 L 186.511719 232.769531 C 188.660156 232.769531 190.402344 234.511719 190.402344 236.660156 C 190.402344 238.808594 188.660156 240.550781 186.511719 240.550781 Z M 134.960938 240.550781"/><path fill="#C0D7DD" d="M 166.816406 240.550781 L 134.960938 240.550781 C 132.8125 240.550781 131.070312 238.808594 131.070312 236.660156 C 131.070312 234.511719 132.8125 232.769531 134.960938 232.769531 L 166.816406 232.769531 C 164.667969 232.769531 162.921875 234.511719 162.921875 236.660156 C 162.921875 238.808594 164.667969 240.550781 166.816406 240.550781 Z M 166.816406 240.550781"/><path fill="#D3E6ED" d="M 131.070312 194.554688 C 131.070312 192.40625 132.8125 190.664062 134.960938 190.664062 L 197.300781 190.664062 C 199.445312 190.664062 201.191406 192.40625 201.191406 194.554688 C 201.191406 196.703125 199.445312 198.445312 197.300781 198.445312 L 134.960938 198.445312 C 132.8125 198.445312 131.070312 196.703125 131.070312 194.554688 Z M 131.070312 194.554688"/><path fill="#C0D7DD" d="M 156.699219 198.445312 L 134.960938 198.445312 C 132.8125 198.445312 131.070312 196.703125 131.070312 194.554688 C 131.070312 192.40625 132.8125 190.664062 134.960938 190.664062 L 156.699219 190.664062 C 154.550781 190.664062 152.804688 192.40625 152.804688 194.554688 C 152.804688 196.703125 154.550781 198.445312 156.699219 198.445312 Z M 156.699219 198.445312"/><path fill="#D3E6ED" d="M 249.199219 215.621094 C 249.199219 217.769531 247.457031 219.511719 245.308594 219.511719 L 134.960938 219.511719 C 132.8125 219.511719 131.070312 217.769531 131.070312 215.621094 C 131.070312 213.472656 132.8125 211.730469 134.960938 211.730469 L 245.308594 211.730469 C 247.457031 211.730469 249.199219 213.472656 249.199219 215.621094 Z M 249.199219 215.621094"/><path fill="#C0D7DD" d="M 166.816406 219.511719 L 134.960938 219.511719 C 132.8125 219.511719 131.070312 217.769531 131.070312 215.621094 C 131.070312 213.472656 132.8125 211.730469 134.960938 211.730469 L 166.816406 211.730469 C 164.667969 211.730469 162.921875 213.472656 162.921875 215.621094 C 162.921875 217.769531 164.667969 219.511719 166.816406 219.511719 Z M 166.816406 219.511719"/><path fill="#D3E6ED" d="M 227.195312 257.699219 C 227.195312 259.847656 225.449219 261.589844 223.304688 261.589844 L 136.460938 261.589844 C 134.316406 261.589844 132.570312 259.847656 132.570312 257.699219 C 132.570312 255.554688 134.316406 253.808594 136.460938 253.808594 L 223.304688 253.808594 C 225.449219 253.808594 227.195312 255.554688 227.195312 257.699219 Z M 227.195312 257.699219"/><path fill="#C0D7DD" d="M 176.207031 261.589844 L 136.464844 261.589844 C 134.316406 261.589844 132.570312 259.847656 132.570312 257.699219 C 132.570312 255.554688 134.316406 253.808594 136.464844 253.808594 L 176.207031 253.808594 C 174.058594 253.808594 172.316406 255.554688 172.316406 257.699219 C 172.316406 259.847656 174.058594 261.589844 176.207031 261.589844 Z M 176.207031 261.589844"/><path fill="#D3E6ED" d="M 178.273438 152.476562 C 178.273438 150.328125 180.015625 148.585938 182.164062 148.585938 L 250.542969 148.585938 C 252.6875 148.585938 254.433594 150.328125 254.433594 152.476562 C 254.433594 154.621094 252.6875 156.367188 250.542969 156.367188 L 182.164062 156.367188 C 180.015625 156.367188 178.273438 154.621094 178.273438 152.476562 Z M 178.273438 152.476562"/><path fill="#C0D7DD" d="M 219.144531 156.367188 L 182.164062 156.367188 C 180.019531 156.367188 178.273438 154.621094 178.273438 152.476562 C 178.273438 150.328125 180.019531 148.585938 182.164062 148.585938 L 219.144531 148.585938 C 216.996094 148.585938 215.253906 150.328125 215.253906 152.476562 C 215.253906 154.621094 216.996094 156.367188 219.144531 156.367188 Z M 219.144531 156.367188"/><path fill="#D3E6ED" d="M 284.933594 194.554688 C 284.933594 196.703125 283.160156 198.445312 281.042969 198.445312 L 215.855469 198.445312 C 213.710938 198.445312 211.964844 196.703125 211.964844 194.554688 C 211.964844 192.40625 213.710938 190.664062 215.855469 190.664062 L 281.042969 190.664062 C 283.160156 190.664062 284.933594 192.40625 284.933594 194.554688 Z M 284.933594 194.554688"/><path fill="#C0D7DD" d="M 247.726562 198.445312 L 215.84375 198.445312 C 213.695312 198.445312 211.953125 196.703125 211.953125 194.554688 C 211.953125 192.40625 213.695312 190.664062 215.84375 190.664062 L 247.726562 190.664062 C 245.578125 190.664062 243.832031 192.40625 243.832031 194.554688 C 243.832031 196.703125 245.578125 198.445312 247.726562 198.445312 Z M 247.726562 198.445312"/><path fill="#FC545D" d="M 257.980469 113.179688 L 257.980469 150.632812 C 257.980469 155.585938 262.011719 159.796875 267.144531 159.796875 L 267.910156 159.796875 C 268.757812 159.796875 269.441406 160.480469 269.441406 161.328125 L 269.441406 167.523438 C 269.441406 168.777344 270.859375 169.496094 271.871094 168.746094 L 283.609375 160.105469 C 283.871094 159.894531 284.179688 159.796875 284.507812 159.796875 L 317.980469 159.796875 C 323.050781 159.796875 327.140625 155.6875 327.140625 150.632812 L 327.140625 113.179688 C 327.140625 107.871094 322.65625 104.050781 318.515625 104.050781 C 318.363281 104 306.152344 104.03125 267.144531 104.019531 C 262.089844 104.019531 257.980469 108.128906 257.980469 113.179688 Z M 257.980469 113.179688"/><path fill="#F14448" d="M 265.605469 134.636719 L 265.605469 104.171875 C 261.285156 104.910156 257.980469 108.652344 257.980469 113.179688 L 257.980469 150.632812 C 257.980469 155.585938 262.011719 159.796875 267.140625 159.796875 L 267.910156 159.796875 C 268.757812 159.796875 269.441406 160.480469 269.441406 161.328125 L 269.441406 167.523438 C 269.441406 168.777344 270.859375 169.496094 271.871094 168.746094 L 283.609375 160.105469 C 283.871094 159.894531 284.179688 159.796875 284.507812 159.796875 L 317.980469 159.796875 C 322.914062 159.796875 326.894531 155.890625 327.101562 151.023438 L 281.992188 151.023438 C 272.941406 151.023438 265.605469 143.6875 265.605469 134.636719 Z M 265.605469 134.636719"/><g mask="url(#c)"><g><g clip-path="url(#d)" fill="#FFF" transform="translate(271 105)"><path d="M 5.28125 7.183594 L 25.054688 7.183594 C 26.207031 7.183594 27.144531 6.246094 27.144531 5.09375 C 27.144531 3.9375 26.207031 3.003906 25.054688 3.003906 L 5.28125 3.003906 C 4.128906 3.003906 3.191406 3.9375 3.191406 5.09375 C 3.191406 6.246094 4.128906 7.183594 5.28125 7.183594 Z M 5.28125 7.183594"/><path d="M 32.128906 7.183594 L 33.820312 7.183594 C 34.972656 7.183594 35.910156 6.246094 35.910156 5.09375 C 35.910156 3.9375 34.972656 3.003906 33.820312 3.003906 L 32.128906 3.003906 C 30.972656 3.003906 30.039062 3.9375 30.039062 5.09375 C 30.039062 6.246094 30.972656 7.183594 32.128906 7.183594 Z M 32.128906 7.183594"/></g></g></g><path fill="#FFF" d="M 277.535156 142.167969 C 277.066406 141.894531 276.832031 141.5 276.832031 140.988281 C 276.832031 140.652344 276.945312 140.347656 277.167969 140.082031 C 277.390625 139.816406 277.683594 139.683594 278.042969 139.683594 C 278.257812 139.683594 278.449219 139.726562 278.617188 139.8125 C 279.59375 140.28125 280.582031 140.511719 281.582031 140.511719 C 282.730469 140.511719 283.660156 140.183594 284.371094 139.523438 C 285.082031 138.867188 285.441406 137.621094 285.441406 135.796875 L 285.441406 121.996094 C 285.441406 121.589844 285.574219 121.246094 285.855469 120.960938 C 286.128906 120.671875 286.46875 120.53125 286.875 120.53125 C 287.277344 120.53125 287.621094 120.671875 287.910156 120.960938 C 288.195312 121.246094 288.339844 121.589844 288.339844 121.996094 L 288.339844 135.605469 C 288.339844 138.386719 287.71875 140.359375 286.476562 141.515625 C 285.234375 142.675781 283.664062 143.253906 281.773438 143.253906 C 280.222656 143.253906 278.808594 142.894531 277.535156 142.167969 Z M 277.535156 142.167969"/><path fill="#FFF" d="M 281.773438 143.792969 C 280.136719 143.792969 278.621094 143.402344 277.269531 142.636719 L 277.261719 142.632812 C 276.632812 142.261719 276.296875 141.695312 276.296875 140.988281 C 276.296875 140.523438 276.449219 140.101562 276.757812 139.738281 C 277.261719 139.132812 278.179688 138.996094 278.855469 139.328125 C 279.746094 139.757812 280.667969 139.976562 281.582031 139.976562 C 282.597656 139.976562 283.394531 139.699219 284.007812 139.132812 C 284.601562 138.582031 284.902344 137.460938 284.902344 135.796875 L 284.902344 121.996094 C 284.902344 121.445312 285.09375 120.972656 285.46875 120.585938 C 286.214844 119.804688 287.515625 119.800781 288.289062 120.582031 C 288.675781 120.964844 288.875 121.441406 288.875 121.996094 L 288.875 135.605469 C 288.875 138.527344 288.191406 140.652344 286.839844 141.910156 C 285.503906 143.15625 283.796875 143.792969 281.773438 143.792969 Z M 277.804688 141.703125 C 278.988281 142.375 280.324219 142.71875 281.773438 142.71875 C 283.539062 142.71875 284.960938 142.195312 286.109375 141.125 C 287.230469 140.078125 287.800781 138.21875 287.800781 135.605469 L 287.800781 121.996094 C 287.800781 121.730469 287.714844 121.523438 287.53125 121.339844 C 287.160156 120.964844 286.589844 120.96875 286.242188 121.332031 C 286.0625 121.519531 285.976562 121.726562 285.976562 121.996094 L 285.976562 135.796875 C 285.976562 137.800781 285.570312 139.148438 284.734375 139.917969 C 283.925781 140.667969 282.863281 141.050781 281.582031 141.050781 C 280.503906 141.050781 279.429688 140.796875 278.386719 140.292969 C 278.128906 140.167969 277.78125 140.191406 277.582031 140.425781 C 277.4375 140.597656 277.371094 140.78125 277.371094 140.988281 C 277.371094 141.3125 277.5 141.527344 277.804688 141.703125 Z M 277.804688 141.703125"/><path fill="#FFF" d="M 293.789062 141.722656 C 293.53125 141.617188 293.320312 141.445312 293.152344 141.195312 C 292.980469 140.953125 292.894531 140.695312 292.894531 140.417969 C 292.894531 140.054688 293.019531 139.742188 293.261719 139.476562 C 293.507812 139.210938 293.820312 139.078125 294.203125 139.078125 C 294.414062 139.078125 294.617188 139.121094 294.808594 139.207031 C 296.765625 140.078125 298.855469 140.511719 301.085938 140.511719 C 304.804688 140.511719 306.664062 139.292969 306.664062 136.847656 C 306.664062 136.210938 306.425781 135.679688 305.945312 135.253906 C 305.46875 134.828125 304.878906 134.492188 304.175781 134.25 C 303.476562 134.007812 302.480469 133.710938 301.183594 133.375 C 299.460938 132.925781 298.070312 132.496094 297.007812 132.082031 C 295.945312 131.667969 295.03125 131.046875 294.265625 130.21875 C 293.5 129.386719 293.117188 128.285156 293.117188 126.902344 C 293.117188 125.691406 293.4375 124.59375 294.074219 123.605469 C 294.710938 122.617188 295.652344 121.832031 296.894531 121.246094 C 298.140625 120.660156 299.628906 120.371094 301.375 120.371094 C 303.710938 120.371094 305.824219 120.722656 307.714844 121.421875 C 308.308594 121.632812 308.609375 122.058594 308.609375 122.699219 C 308.609375 123.035156 308.492188 123.34375 308.257812 123.621094 C 308.023438 123.898438 307.714844 124.035156 307.332031 124.035156 C 307.207031 124.035156 307.035156 123.992188 306.824219 123.910156 C 305.164062 123.335938 303.457031 123.046875 301.691406 123.046875 C 300.011719 123.046875 298.648438 123.367188 297.597656 124.003906 C 296.546875 124.640625 296.019531 125.535156 296.019531 126.679688 C 296.019531 127.445312 296.269531 128.066406 296.769531 128.542969 C 297.265625 129.023438 297.894531 129.394531 298.648438 129.660156 C 299.402344 129.925781 300.425781 130.207031 301.726562 130.503906 C 303.402344 130.910156 304.757812 131.3125 305.785156 131.714844 C 306.820312 132.117188 307.699219 132.746094 308.433594 133.597656 C 309.167969 134.445312 309.53125 135.59375 309.53125 137.039062 C 309.53125 138.226562 309.195312 139.296875 308.511719 140.242188 C 307.832031 141.1875 306.878906 141.925781 305.644531 142.457031 C 304.410156 142.988281 302.988281 143.253906 301.375 143.253906 C 298.675781 143.253906 296.148438 142.742188 293.789062 141.722656 Z M 293.789062 141.722656"/><path fill="#FFF" d="M 301.375 143.792969 C 298.621094 143.792969 295.996094 143.261719 293.578125 142.21875 C 293.226562 142.070312 292.933594 141.828125 292.710938 141.5 C 292.480469 141.167969 292.359375 140.804688 292.359375 140.417969 C 292.359375 139.917969 292.53125 139.480469 292.867188 139.113281 C 293.390625 138.539062 294.265625 138.382812 295.023438 138.714844 C 296.902344 139.550781 298.941406 139.976562 301.085938 139.976562 C 306.128906 139.976562 306.128906 137.621094 306.128906 136.847656 C 306.128906 136.363281 305.953125 135.976562 305.589844 135.65625 C 305.164062 135.277344 304.632812 134.976562 304.003906 134.757812 C 303.296875 134.511719 302.304688 134.222656 301.046875 133.894531 C 299.304688 133.441406 297.882812 133 296.8125 132.582031 C 295.679688 132.140625 294.6875 131.46875 293.875 130.582031 C 293.015625 129.652344 292.582031 128.417969 292.582031 126.902344 C 292.582031 125.59375 292.933594 124.386719 293.625 123.3125 C 294.3125 122.246094 295.335938 121.386719 296.667969 120.757812 C 297.972656 120.144531 299.558594 119.832031 301.375 119.832031 C 303.761719 119.832031 305.960938 120.199219 307.902344 120.917969 C 308.699219 121.203125 309.148438 121.835938 309.148438 122.699219 C 309.148438 123.164062 308.984375 123.59375 308.667969 123.96875 C 308.335938 124.363281 307.875 124.570312 307.332031 124.570312 C 307.136719 124.570312 306.90625 124.519531 306.628906 124.40625 C 305.054688 123.863281 303.382812 123.582031 301.691406 123.582031 C 300.125 123.582031 298.835938 123.878906 297.875 124.460938 C 296.988281 125 296.558594 125.726562 296.558594 126.679688 C 296.558594 127.300781 296.746094 127.78125 297.136719 128.15625 C 297.582031 128.582031 298.148438 128.917969 298.828125 129.152344 C 299.574219 129.417969 300.589844 129.695312 301.84375 129.980469 C 303.546875 130.390625 304.933594 130.804688 305.984375 131.214844 C 307.085938 131.648438 308.046875 132.328125 308.839844 133.246094 C 309.65625 134.1875 310.070312 135.464844 310.070312 137.039062 C 310.070312 138.34375 309.691406 139.523438 308.949219 140.554688 C 308.214844 141.574219 307.175781 142.382812 305.859375 142.949219 C 304.558594 143.507812 303.046875 143.792969 301.375 143.792969 Z M 294.203125 139.613281 C 293.972656 139.613281 293.800781 139.683594 293.65625 139.839844 C 293.503906 140.007812 293.433594 140.191406 293.433594 140.417969 C 293.433594 140.582031 293.484375 140.734375 293.59375 140.890625 C 293.703125 141.050781 293.832031 141.160156 293.996094 141.230469 L 294 141.230469 C 296.285156 142.21875 298.761719 142.71875 301.375 142.71875 C 302.902344 142.71875 304.269531 142.464844 305.433594 141.964844 C 306.570312 141.472656 307.457031 140.789062 308.078125 139.925781 C 308.683594 139.082031 308.996094 138.109375 308.996094 137.039062 C 308.996094 135.730469 308.667969 134.691406 308.027344 133.949219 C 307.351562 133.167969 306.53125 132.582031 305.589844 132.214844 C 304.589844 131.824219 303.246094 131.421875 301.597656 131.027344 C 300.3125 130.734375 299.257812 130.441406 298.46875 130.167969 C 297.648438 129.878906 296.945312 129.460938 296.398438 128.929688 C 295.792969 128.355469 295.480469 127.597656 295.480469 126.679688 C 295.480469 125.339844 296.101562 124.28125 297.320312 123.542969 C 298.453125 122.859375 299.925781 122.507812 301.691406 122.507812 C 303.503906 122.507812 305.289062 122.808594 307 123.402344 C 307.242188 123.496094 307.332031 123.496094 307.332031 123.496094 C 307.558594 123.496094 307.71875 123.429688 307.847656 123.277344 C 308 123.097656 308.070312 122.90625 308.070312 122.699219 C 308.070312 122.285156 307.917969 122.0625 307.535156 121.925781 C 305.707031 121.25 303.636719 120.90625 301.375 120.90625 C 299.71875 120.90625 298.289062 121.183594 297.121094 121.730469 C 295.976562 122.269531 295.105469 122.996094 294.527344 123.894531 C 293.949219 124.792969 293.65625 125.804688 293.65625 126.902344 C 293.65625 128.15625 293.984375 129.121094 294.660156 129.855469 C 295.367188 130.617188 296.222656 131.199219 297.203125 131.582031 C 298.234375 131.984375 299.617188 132.414062 301.320312 132.855469 C 302.601562 133.191406 303.625 133.488281 304.351562 133.742188 C 305.117188 134.007812 305.773438 134.378906 306.304688 134.851562 C 306.898438 135.378906 307.203125 136.050781 307.203125 136.847656 C 307.203125 138.765625 306.140625 141.050781 301.085938 141.050781 C 298.789062 141.050781 296.605469 140.59375 294.589844 139.695312 C 294.464844 139.640625 294.335938 139.613281 294.203125 139.613281 Z M 294.203125 139.613281"/><path fill="#43A1FF" d="M 98.320312 193.304688 L 98.320312 230.753906 C 98.320312 230.867188 98.320312 230.984375 98.304688 231.097656 C 98.125 235.988281 94.097656 239.917969 89.160156 239.917969 L 88.394531 239.917969 C 87.546875 239.917969 86.859375 240.601562 86.859375 241.449219 L 86.859375 247.644531 C 86.859375 248.902344 85.441406 249.617188 84.429688 248.867188 L 72.691406 240.226562 C 72.429688 240.015625 72.121094 239.917969 71.796875 239.917969 L 38.324219 239.917969 C 33.253906 239.917969 29.160156 235.808594 29.160156 230.753906 L 29.160156 193.304688 C 29.160156 192.683594 29.226562 192.082031 29.339844 191.511719 C 29.386719 191.21875 29.46875 190.921875 29.550781 190.644531 C 29.648438 190.289062 29.777344 189.945312 29.957031 189.601562 C 30.039062 189.375 30.152344 189.164062 30.269531 188.949219 C 30.398438 188.691406 30.5625 188.429688 30.726562 188.183594 C 30.886719 187.941406 31.066406 187.710938 31.246094 187.484375 C 31.476562 187.207031 31.71875 186.945312 31.980469 186.699219 C 32.144531 186.539062 32.304688 186.390625 32.484375 186.246094 C 32.699219 186.066406 32.910156 185.902344 33.121094 185.753906 C 33.449219 185.527344 33.804688 185.316406 34.164062 185.152344 C 34.328125 185.054688 34.492188 184.972656 34.652344 184.90625 C 34.734375 184.875 34.832031 184.824219 34.929688 184.792969 C 35.109375 184.710938 35.289062 184.644531 35.484375 184.582031 C 35.730469 184.515625 35.976562 184.449219 36.234375 184.386719 C 36.449219 184.335938 36.675781 184.289062 36.902344 184.253906 C 36.96875 184.238281 37.035156 184.238281 37.117188 184.238281 C 37.328125 184.191406 37.554688 184.171875 37.785156 184.171875 C 37.832031 184.15625 37.867188 184.15625 37.914062 184.15625 C 38.046875 184.140625 38.191406 184.140625 38.324219 184.140625 L 89.160156 184.140625 C 94.214844 184.140625 98.320312 188.25 98.320312 193.304688 Z M 98.320312 193.304688"/><path fill="#2C8CFF" d="M 90.695312 214.757812 L 90.695312 184.296875 C 95.015625 185.03125 98.320312 188.777344 98.320312 193.304688 L 98.320312 230.753906 C 98.320312 230.867188 98.320312 230.984375 98.304688 231.097656 C 98.125 235.988281 94.097656 239.917969 89.160156 239.917969 L 88.394531 239.917969 C 87.546875 239.917969 86.859375 240.601562 86.859375 241.449219 L 86.859375 247.644531 C 86.859375 248.902344 85.441406 249.617188 84.429688 248.867188 L 72.691406 240.226562 C 72.429688 240.015625 72.121094 239.917969 71.796875 239.917969 L 38.324219 239.917969 C 33.386719 239.917969 29.40625 236.015625 29.199219 231.144531 L 74.308594 231.144531 C 83.359375 231.144531 90.695312 223.808594 90.695312 214.757812 Z M 90.695312 214.757812"/><g mask="url(#e)"><g><g clip-path="url(#f)" transform="translate(49 186)"><path fill="#FFF" d="M 31.019531 6.304688 L 11.25 6.304688 C 10.09375 6.304688 9.160156 5.371094 9.160156 4.214844 C 9.160156 3.0625 10.09375 2.125 11.25 2.125 L 31.019531 2.125 C 32.171875 2.125 33.109375 3.0625 33.109375 4.214844 C 33.109375 5.371094 32.171875 6.304688 31.019531 6.304688 Z M 31.019531 6.304688"/><g clip-path="url(#g)"><path fill="#FFF" d="M 4.175781 6.304688 L 2.484375 6.304688 C 1.328125 6.304688 0.394531 5.371094 0.394531 4.214844 C 0.394531 3.0625 1.328125 2.125 2.484375 2.125 L 4.175781 2.125 C 5.328125 2.125 6.265625 3.0625 6.265625 4.214844 C 6.265625 5.371094 5.328125 6.304688 4.175781 6.304688 Z M 4.175781 6.304688"/></g></g></g></g><path fill="#FFF" d="M 49.316406 221.203125 L 36.597656 215.496094 C 36.238281 215.328125 35.957031 215.097656 35.753906 214.8125 C 35.554688 214.523438 35.453125 214.203125 35.453125 213.839844 L 35.453125 213.585938 C 35.453125 213.222656 35.554688 212.898438 35.753906 212.613281 C 35.957031 212.324219 36.238281 212.097656 36.597656 211.925781 L 49.316406 206.222656 C 49.488281 206.160156 49.65625 206.128906 49.824219 206.128906 C 50.1875 206.128906 50.492188 206.25 50.734375 206.496094 C 50.980469 206.738281 51.101562 207.042969 51.101562 207.402344 C 51.101562 207.65625 51.019531 207.898438 50.863281 208.121094 C 50.703125 208.34375 50.496094 208.507812 50.238281 208.613281 L 38.765625 213.710938 L 50.238281 218.8125 C 50.496094 218.917969 50.703125 219.082031 50.863281 219.308594 C 51.019531 219.53125 51.101562 219.769531 51.101562 220.023438 C 51.101562 220.382812 50.980469 220.6875 50.734375 220.933594 C 50.492188 221.175781 50.1875 221.296875 49.824219 221.296875 C 49.65625 221.296875 49.488281 221.265625 49.316406 221.203125 Z M 49.316406 221.203125"/><path fill="#FFF" d="M 49.824219 221.835938 C 49.59375 221.835938 49.371094 221.792969 49.132812 221.703125 L 49.097656 221.691406 L 36.378906 215.988281 C 35.929688 215.777344 35.574219 215.488281 35.316406 215.121094 C 35.050781 214.742188 34.917969 214.3125 34.917969 213.839844 L 34.917969 213.585938 C 34.917969 213.109375 35.054688 212.679688 35.316406 212.304688 C 35.570312 211.941406 35.925781 211.652344 36.371094 211.441406 L 49.097656 205.730469 C 49.933594 205.421875 50.613281 205.613281 51.117188 206.113281 C 51.457031 206.457031 51.640625 206.902344 51.640625 207.402344 C 51.640625 207.765625 51.527344 208.113281 51.300781 208.429688 C 51.078125 208.738281 50.789062 208.96875 50.441406 209.109375 L 40.085938 213.710938 L 50.457031 218.320312 C 50.796875 218.464844 51.085938 218.691406 51.300781 218.996094 C 51.527344 219.3125 51.640625 219.660156 51.640625 220.023438 C 51.640625 220.523438 51.457031 220.96875 51.117188 221.3125 C 50.773438 221.652344 50.328125 221.835938 49.824219 221.835938 Z M 49.519531 220.703125 C 49.875 220.832031 50.152344 220.761719 50.355469 220.550781 C 50.5 220.410156 50.566406 220.242188 50.566406 220.023438 C 50.566406 219.882812 50.519531 219.75 50.425781 219.617188 C 50.328125 219.476562 50.199219 219.375 50.03125 219.308594 L 37.445312 213.710938 L 50.023438 208.121094 C 50.199219 208.050781 50.328125 207.949219 50.429688 207.804688 C 50.519531 207.671875 50.566406 207.542969 50.566406 207.402344 C 50.566406 207.183594 50.5 207.015625 50.355469 206.875 C 50.144531 206.660156 49.839844 206.597656 49.503906 206.726562 L 36.820312 212.417969 C 36.550781 212.542969 36.34375 212.710938 36.195312 212.921875 C 36.058594 213.117188 35.992188 213.332031 35.992188 213.585938 L 35.992188 213.839844 C 35.992188 214.089844 36.058594 214.308594 36.195312 214.503906 C 36.34375 214.714844 36.554688 214.882812 36.824219 215.007812 Z M 49.519531 220.703125"/><path fill="#FFF" d="M 54.71875 225.789062 C 54.472656 225.535156 54.351562 225.226562 54.351562 224.867188 C 54.351562 224.738281 54.382812 224.578125 54.445312 224.386719 L 62.894531 199.6875 C 62.976562 199.433594 63.125 199.222656 63.339844 199.050781 C 63.550781 198.882812 63.816406 198.796875 64.136719 198.796875 C 64.515625 198.796875 64.832031 198.921875 65.074219 199.179688 C 65.320312 199.433594 65.441406 199.742188 65.441406 200.101562 C 65.441406 200.230469 65.410156 200.390625 65.34375 200.582031 L 56.902344 225.28125 C 56.816406 225.535156 56.664062 225.75 56.453125 225.917969 C 56.242188 226.089844 55.976562 226.171875 55.65625 226.171875 C 55.273438 226.171875 54.960938 226.046875 54.71875 225.789062 Z M 54.71875 225.789062"/><path fill="#FFF" d="M 55.65625 226.710938 C 55.121094 226.710938 54.675781 226.527344 54.332031 226.160156 C 53.992188 225.8125 53.816406 225.363281 53.816406 224.867188 C 53.816406 224.679688 53.855469 224.46875 53.933594 224.222656 L 62.382812 199.515625 C 62.5 199.167969 62.707031 198.871094 63.003906 198.632812 C 63.671875 198.089844 64.835938 198.148438 65.464844 198.8125 C 65.800781 199.160156 65.980469 199.609375 65.980469 200.101562 C 65.980469 200.296875 65.9375 200.507812 65.855469 200.757812 L 57.410156 225.457031 C 57.289062 225.804688 57.082031 226.105469 56.789062 226.335938 C 56.484375 226.585938 56.101562 226.710938 55.65625 226.710938 Z M 64.136719 199.335938 C 63.9375 199.335938 63.789062 199.378906 63.671875 199.46875 C 63.542969 199.574219 63.453125 199.703125 63.402344 199.855469 L 54.953125 224.5625 C 54.894531 224.742188 54.890625 224.835938 54.890625 224.867188 C 54.890625 225.089844 54.957031 225.265625 55.105469 225.417969 L 55.109375 225.421875 C 55.359375 225.691406 55.863281 225.699219 56.117188 225.5 C 56.25 225.394531 56.339844 225.265625 56.394531 225.109375 L 64.835938 200.410156 C 64.898438 200.226562 64.90625 200.136719 64.90625 200.101562 C 64.90625 199.882812 64.835938 199.707031 64.6875 199.550781 C 64.546875 199.402344 64.371094 199.335938 64.136719 199.335938 Z M 64.136719 199.335938"/><path fill="#FFF" d="M 69.03125 220.933594 C 68.785156 220.6875 68.664062 220.382812 68.664062 220.023438 C 68.664062 219.769531 68.742188 219.53125 68.902344 219.308594 C 69.0625 219.082031 69.269531 218.917969 69.523438 218.8125 L 80.996094 213.710938 L 69.523438 208.613281 C 69.269531 208.507812 69.0625 208.34375 68.902344 208.121094 C 68.742188 207.898438 68.664062 207.65625 68.664062 207.402344 C 68.664062 207.042969 68.785156 206.738281 69.03125 206.496094 C 69.273438 206.25 69.574219 206.128906 69.9375 206.128906 C 70.128906 206.128906 70.296875 206.160156 70.449219 206.222656 L 83.164062 211.925781 C 83.527344 212.097656 83.804688 212.324219 84.007812 212.613281 C 84.210938 212.898438 84.3125 213.222656 84.3125 213.585938 L 84.3125 213.839844 C 84.3125 214.203125 84.210938 214.523438 84.007812 214.8125 C 83.804688 215.097656 83.527344 215.328125 83.164062 215.496094 L 70.449219 221.203125 C 70.296875 221.265625 70.128906 221.296875 69.9375 221.296875 C 69.574219 221.296875 69.273438 221.175781 69.03125 220.933594 Z M 69.03125 220.933594"/><path fill="#FFF" d="M 69.9375 221.835938 C 69.429688 221.835938 69 221.660156 68.652344 221.3125 C 68.308594 220.972656 68.125 220.527344 68.125 220.023438 C 68.125 219.652344 68.242188 219.308594 68.46875 218.992188 C 68.679688 218.695312 68.964844 218.464844 69.3125 218.316406 L 79.675781 213.710938 L 69.304688 209.101562 C 68.972656 208.964844 68.683594 208.738281 68.46875 208.433594 C 68.242188 208.117188 68.125 207.773438 68.125 207.402344 C 68.125 206.898438 68.308594 206.453125 68.652344 206.113281 C 69.175781 205.585938 70.023438 205.460938 70.65625 205.726562 L 83.382812 211.4375 C 83.835938 211.652344 84.195312 211.941406 84.449219 212.304688 C 84.710938 212.683594 84.847656 213.113281 84.847656 213.585938 L 84.847656 213.839844 C 84.847656 214.308594 84.710938 214.742188 84.449219 215.121094 C 84.1875 215.488281 83.832031 215.777344 83.390625 215.984375 L 70.667969 221.691406 C 70.4375 221.789062 70.195312 221.835938 69.9375 221.835938 Z M 69.9375 206.664062 C 69.71875 206.664062 69.550781 206.730469 69.410156 206.875 C 69.265625 207.015625 69.199219 207.183594 69.199219 207.402344 C 69.199219 207.546875 69.246094 207.675781 69.335938 207.804688 C 69.4375 207.949219 69.566406 208.050781 69.726562 208.117188 L 82.316406 213.710938 L 69.742188 219.300781 C 69.566406 219.375 69.4375 219.476562 69.339844 219.617188 C 69.246094 219.75 69.199219 219.878906 69.199219 220.023438 C 69.199219 220.242188 69.265625 220.410156 69.40625 220.550781 L 69.410156 220.550781 C 69.628906 220.773438 69.996094 220.8125 70.242188 220.707031 L 82.945312 215.007812 C 83.207031 214.882812 83.421875 214.714844 83.570312 214.503906 C 83.707031 214.304688 83.773438 214.089844 83.773438 213.839844 L 83.773438 213.585938 C 83.773438 213.335938 83.707031 213.121094 83.570312 212.921875 C 83.421875 212.710938 83.214844 212.542969 82.9375 212.414062 L 70.226562 206.710938 C 70.15625 206.683594 70.054688 206.664062 69.9375 206.664062 Z M 69.9375 206.664062"/></svg>