<svg xmlns="http://www.w3.org/2000/svg" width="375" viewBox="0 0 375 375" height="375" version="1.0"><defs><clipPath id="a"><path d="M 16.246094 16.460938 L 358.996094 16.460938 L 358.996094 358.460938 L 16.246094 358.460938 Z M 16.246094 16.460938"/></clipPath><clipPath id="b"><path d="M 39 163 L 338 163 L 338 358.460938 L 39 358.460938 Z M 39 163"/></clipPath></defs><g clip-path="url(#a)"><path fill="#EC383B" d="M 358.753906 187.453125 C 358.753906 281.882812 282.128906 358.433594 187.613281 358.433594 C 93.09375 358.433594 16.476562 281.882812 16.476562 187.453125 C 16.476562 93.019531 93.09375 16.472656 187.613281 16.472656 C 282.128906 16.472656 358.753906 93.019531 358.753906 187.453125"/></g><path fill="#252E51" d="M 241.746094 75.742188 C 241.9375 76.453125 242.128906 77.167969 242.308594 77.875 C 242.128906 77.164062 241.9375 76.457031 241.746094 75.742188"/><path fill="#252E51" d="M 184.773438 23.367188 C 185.242188 23.296875 185.707031 23.238281 186.183594 23.230469 C 185.707031 23.238281 185.242188 23.296875 184.773438 23.367188"/><path fill="#252E51" d="M 130.796875 164.445312 C 129.574219 163.234375 128.054688 161.644531 126.480469 159.769531 C 128.054688 161.644531 129.574219 163.234375 130.796875 164.445312"/><path fill="#252E51" d="M 238.753906 66.644531 C 238.96875 67.160156 239.148438 67.679688 239.347656 68.195312 C 239.148438 67.679688 238.96875 67.160156 238.753906 66.644531"/><path fill="#252E51" d="M 240.402344 71.160156 C 240.605469 71.785156 240.789062 72.402344 240.972656 73.027344 C 240.789062 72.402344 240.605469 71.785156 240.402344 71.160156"/><path fill="#252E51" d="M 172.644531 31.808594 C 172.859375 31.636719 173.070312 31.464844 173.289062 31.292969 C 173.070312 31.464844 172.859375 31.636719 172.644531 31.808594"/><path fill="#252E51" d="M 182.863281 23.839844 C 183.3125 23.683594 183.765625 23.527344 184.226562 23.433594 C 183.765625 23.527344 183.3125 23.683594 182.863281 23.839844"/><path fill="#252E51" d="M 178.738281 26.464844 C 179.308594 25.898438 179.890625 25.421875 180.488281 25.015625 C 179.890625 25.421875 179.308594 25.898438 178.738281 26.464844"/><path fill="#252E51" d="M 175.726562 29.257812 C 175.867188 29.136719 176.011719 29.003906 176.152344 28.878906 C 176.011719 29.003906 175.867188 29.136719 175.726562 29.257812"/><path fill="#252E51" d="M 180.988281 24.734375 C 181.425781 24.46875 181.867188 24.207031 182.320312 24.015625 C 181.871094 24.207031 181.425781 24.46875 180.988281 24.734375"/><path fill="#252E51" d="M 233.296875 57.023438 C 233.566406 57.394531 233.828125 57.773438 234.09375 58.152344 C 233.828125 57.773438 233.566406 57.398438 233.296875 57.023438"/><path fill="#252E51" d="M 251.171875 162.058594 C 250.828125 162.519531 250.488281 162.960938 250.167969 163.367188 C 250.492188 162.960938 250.828125 162.519531 251.171875 162.058594"/><path fill="#252E51" d="M 252.265625 160.5625 C 251.996094 160.941406 251.722656 161.3125 251.460938 161.667969 C 251.722656 161.3125 251.996094 160.941406 252.265625 160.5625"/><path fill="#252E51" d="M 135.492188 114.410156 C 151.6875 107.785156 174.261719 105.105469 188.695312 105.105469 C 207.777344 105.105469 227.441406 105.105469 241.316406 111.652344 C 242.820312 112.363281 244.289062 113.136719 245.71875 113.972656 C 256.796875 120.476562 262.328125 133.636719 259.296875 146.09375 C 261.277344 138.101562 261.464844 129.964844 258.667969 124.367188 C 255.582031 118.203125 256.097656 106.902344 249.507812 97.902344 C 245.691406 92.691406 244.261719 85.691406 242.417969 78.332031 C 236.027344 79.914062 228.726562 89.230469 220.503906 94.707031 C 210.097656 101.640625 222.8125 85.078125 228.101562 71.289062 C 230.796875 64.273438 229.585938 56.363281 227.75 50.273438 C 220.761719 42.621094 212.5 36.140625 207.511719 33.257812 C 202.011719 30.074219 193.765625 23.152344 186.289062 23.230469 C 184.246094 24.742188 182.859375 28.683594 181.175781 33.144531 C 178.625 39.921875 185.417969 44.636719 190.113281 49.589844 C 194.808594 54.550781 176.9375 48.871094 173.800781 40.210938 C 171.742188 34.539062 169.074219 34.914062 167.476562 35.851562 C 162.515625 39.800781 157.699219 44.257812 153.289062 52.488281 C 152.703125 53.589844 152.164062 54.742188 151.589844 55.855469 C 152.09375 60.863281 153.324219 66.492188 156.011719 71.621094 C 163.054688 85.078125 166.070312 89.917969 170.730469 91.734375 C 175.394531 93.550781 175.433594 99.125 165.964844 96.339844 C 156.503906 93.550781 153.675781 78.792969 145.839844 85.789062 C 140.589844 90.46875 137.324219 93.835938 134.28125 95.871094 C 134.035156 96.546875 133.761719 97.234375 133.523438 97.902344 C 128.394531 112.359375 119.753906 123.363281 117.699219 136.402344 C 119.398438 126.5625 126.171875 118.21875 135.492188 114.410156"/><path fill="#252E51" d="M 253.433594 158.867188 C 253.160156 159.277344 252.886719 159.675781 252.617188 160.0625 C 252.890625 159.675781 253.160156 159.277344 253.433594 158.867188"/><g clip-path="url(#b)"><path fill="#1A1D33" d="M 317.265625 233.75 C 307.5 214.75 300.304688 193.179688 286.9375 188.003906 C 273.574219 182.824219 247.148438 166.992188 247.148438 166.992188 C 247.148438 166.992188 248.429688 165.589844 250.160156 163.382812 C 249.1875 164.378906 248.183594 165.554688 247.148438 166.992188 C 238.449219 179.011719 219.34375 187.53125 207.390625 196.882812 C 195.441406 206.234375 191.839844 226.777344 191.839844 226.777344 C 191.839844 226.777344 186.703125 221.984375 175.394531 199.320312 C 164.085938 176.660156 133.523438 166.992188 133.523438 166.992188 C 133.523438 166.992188 133.25 166.757812 132.769531 166.320312 C 133.25 166.757812 133.523438 166.992188 133.523438 166.992188 C 133.523438 166.992188 125.019531 170.070312 119.105469 174.179688 C 113.191406 178.289062 98.289062 185.476562 87.496094 190.101562 C 76.699219 194.71875 70.019531 212.695312 63.335938 226.777344 C 58.484375 237 47.160156 257.925781 39.105469 272.382812 C 68.617188 323.785156 124.046875 358.433594 187.613281 358.433594 C 251.910156 358.433594 307.898438 322.988281 337.144531 270.609375 C 329.699219 255.875 320.328125 239.71875 317.265625 233.75"/></g><path fill="#252E51" d="M 255.910156 154.832031 C 255.597656 155.402344 255.273438 155.964844 254.941406 156.511719 C 255.273438 155.964844 255.597656 155.402344 255.910156 154.832031"/><path fill="#252E51" d="M 257.765625 150.992188 C 257.585938 151.425781 257.398438 151.859375 257.199219 152.296875 C 257.398438 151.859375 257.585938 151.425781 257.765625 150.992188"/><path fill="#252E51" d="M 256.882812 152.957031 C 256.671875 153.390625 256.449219 153.820312 256.222656 154.246094 C 256.449219 153.820312 256.671875 153.390625 256.882812 152.957031"/><path fill="#252E51" d="M 254.871094 156.628906 C 254.507812 157.230469 254.136719 157.8125 253.761719 158.378906 C 254.136719 157.8125 254.507812 157.230469 254.871094 156.628906"/><path fill="#252E51" d="M 258.667969 148.5 C 258.484375 149.125 258.261719 149.753906 258.015625 150.382812 C 258.261719 149.753906 258.484375 149.125 258.667969 148.5"/><path fill="#252E51" d="M 229.722656 52.484375 C 230.03125 52.839844 230.332031 53.195312 230.632812 53.558594 C 230.332031 53.195312 230.035156 52.839844 229.722656 52.484375"/><path fill="#252E51" d="M 123.332031 155.6875 C 122.3125 154.222656 121.332031 152.664062 120.46875 151.042969 C 121.332031 152.664062 122.3125 154.222656 123.332031 155.6875"/><path fill="#252E51" d="M 135.863281 91.628906 C 136.59375 89.683594 137.296875 87.746094 138.066406 85.789062 C 137.296875 87.75 136.59375 89.683594 135.863281 91.628906"/><path fill="#252E51" d="M 167.492188 35.835938 C 168.480469 35.046875 169.472656 34.28125 170.472656 33.507812 C 169.472656 34.28125 168.480469 35.046875 167.492188 35.835938"/><path fill="#252E51" d="M 138.671875 84.320312 C 140.609375 79.457031 142.6875 74.605469 144.863281 69.792969 C 142.6875 74.609375 140.609375 79.453125 138.671875 84.320312"/><path fill="#252E51" d="M 126.480469 159.769531 C 125.433594 158.519531 124.359375 157.148438 123.332031 155.6875 C 124.359375 157.148438 125.433594 158.519531 126.480469 159.769531"/><path fill="#252E51" d="M 147.042969 64.996094 C 147.945312 63.085938 148.890625 61.21875 149.828125 59.335938 C 148.886719 61.21875 147.945312 63.082031 147.042969 64.996094"/><path fill="#303B66" d="M 175.394531 199.320312 C 186.703125 221.984375 191.839844 226.777344 191.839844 226.777344 C 187.085938 221.347656 181.683594 206.191406 174.242188 192.03125 C 166.800781 177.863281 145.101562 170.296875 135.300781 164.035156 C 121.4375 155.179688 110.242188 132.453125 134.914062 117.648438 C 159.589844 102.84375 224.28125 107.46875 238.886719 113.964844 C 257.070312 122.054688 262.136719 135.148438 253.945312 152.484375 C 245.761719 169.816406 222.8125 182.910156 206.914062 194.464844 C 191.015625 206.019531 191.839844 226.777344 191.839844 226.777344 C 191.839844 226.777344 195.441406 206.234375 207.390625 196.882812 C 219.34375 187.53125 238.449219 179.011719 247.148438 166.992188 C 248.183594 165.554688 249.1875 164.378906 250.160156 163.382812 C 250.160156 163.378906 250.167969 163.371094 250.167969 163.367188 C 250.488281 162.960938 250.828125 162.519531 251.171875 162.058594 C 251.265625 161.933594 251.363281 161.800781 251.460938 161.667969 C 251.722656 161.3125 251.996094 160.941406 252.265625 160.5625 C 252.382812 160.394531 252.5 160.234375 252.617188 160.0625 C 252.886719 159.675781 253.160156 159.277344 253.433594 158.867188 C 253.542969 158.703125 253.652344 158.550781 253.761719 158.378906 C 254.136719 157.8125 254.507812 157.230469 254.871094 156.628906 C 254.894531 156.59375 254.917969 156.554688 254.941406 156.511719 C 255.273438 155.964844 255.597656 155.402344 255.910156 154.832031 C 256.015625 154.640625 256.117188 154.445312 256.222656 154.246094 C 256.449219 153.820312 256.671875 153.390625 256.882812 152.957031 C 256.988281 152.738281 257.09375 152.519531 257.199219 152.296875 C 257.398438 151.859375 257.585938 151.425781 257.765625 150.992188 C 257.851562 150.789062 257.9375 150.585938 258.015625 150.382812 C 258.261719 149.753906 258.484375 149.125 258.667969 148.5 C 258.878906 147.78125 259.074219 147.054688 259.257812 146.328125 C 259.28125 146.25 259.28125 146.167969 259.296875 146.09375 C 262.328125 133.636719 256.796875 120.476562 245.71875 113.972656 C 244.289062 113.136719 242.820312 112.363281 241.316406 111.652344 C 227.441406 105.105469 207.777344 105.105469 188.695312 105.105469 C 174.261719 105.105469 151.6875 107.785156 135.492188 114.410156 C 126.171875 118.21875 119.398438 126.5625 117.699219 136.402344 C 117.605469 136.953125 117.460938 137.496094 117.398438 138.058594 C 117.390625 138.117188 117.382812 138.175781 117.378906 138.230469 C 116.917969 142.5625 118.324219 146.996094 120.46875 151.042969 C 121.332031 152.664062 122.3125 154.222656 123.332031 155.6875 C 124.359375 157.148438 125.433594 158.519531 126.480469 159.769531 C 128.054688 161.644531 129.574219 163.234375 130.796875 164.445312 C 132.421875 166.058594 133.523438 166.992188 133.523438 166.992188 C 133.523438 166.992188 164.085938 176.660156 175.394531 199.320312"/><path fill="#161A22" d="M 206.914062 194.464844 C 222.8125 182.910156 245.761719 169.816406 253.945312 152.484375 C 262.136719 135.148438 257.070312 122.054688 238.886719 113.964844 C 224.28125 107.46875 159.589844 102.84375 134.914062 117.648438 C 110.242188 132.453125 121.4375 155.179688 135.300781 164.035156 C 145.101562 170.296875 166.800781 177.863281 174.242188 192.03125 C 181.683594 206.191406 187.085938 221.347656 191.839844 226.777344 C 191.839844 226.777344 191.015625 206.019531 206.914062 194.464844"/><path fill="#222643" d="M 228.101562 71.289062 C 222.8125 85.078125 210.097656 101.640625 220.503906 94.707031 C 228.726562 89.230469 236.027344 79.914062 242.417969 78.332031 L 242.425781 78.328125 C 242.390625 78.179688 242.34375 78.027344 242.308594 77.875 C 242.128906 77.167969 241.9375 76.453125 241.746094 75.742188 C 241.503906 74.835938 241.246094 73.933594 240.972656 73.027344 C 240.789062 72.402344 240.605469 71.785156 240.402344 71.160156 C 240.085938 70.167969 239.71875 69.183594 239.347656 68.195312 C 239.148438 67.679688 238.96875 67.160156 238.753906 66.644531 C 238.136719 65.160156 237.457031 63.679688 236.660156 62.238281 C 235.90625 60.871094 235.023438 59.507812 234.09375 58.152344 C 233.828125 57.773438 233.566406 57.394531 233.296875 57.023438 C 232.449219 55.855469 231.566406 54.699219 230.632812 53.558594 C 230.332031 53.195312 230.03125 52.839844 229.722656 52.484375 C 229.070312 51.71875 228.414062 50.953125 227.730469 50.207031 C 227.734375 50.230469 227.742188 50.253906 227.75 50.273438 C 229.585938 56.363281 230.796875 64.273438 228.101562 71.289062"/><path fill="#222643" d="M 165.964844 96.339844 C 175.433594 99.125 175.394531 93.550781 170.730469 91.734375 C 166.070312 89.917969 163.054688 85.078125 156.011719 71.621094 C 153.324219 66.492188 152.09375 60.863281 151.589844 55.855469 C 151.585938 55.832031 151.582031 55.808594 151.578125 55.785156 C 150.976562 56.945312 150.414062 58.15625 149.828125 59.335938 C 148.890625 61.21875 147.945312 63.085938 147.042969 64.996094 C 146.292969 66.582031 145.585938 68.191406 144.863281 69.792969 C 142.6875 74.605469 140.609375 79.457031 138.671875 84.320312 C 138.476562 84.808594 138.261719 85.296875 138.066406 85.789062 C 137.296875 87.746094 136.59375 89.683594 135.863281 91.628906 C 135.332031 93.050781 134.769531 94.480469 134.257812 95.886719 C 134.261719 95.882812 134.273438 95.875 134.28125 95.871094 C 137.324219 93.835938 140.589844 90.46875 145.839844 85.789062 C 153.675781 78.792969 156.503906 93.550781 165.964844 96.339844"/><path fill="#222643" d="M 173.800781 40.210938 C 176.9375 48.871094 194.808594 54.550781 190.113281 49.589844 C 185.417969 44.636719 178.625 39.921875 181.175781 33.144531 C 182.859375 28.683594 184.246094 24.742188 186.289062 23.230469 C 186.296875 23.226562 186.304688 23.21875 186.304688 23.214844 C 186.265625 23.21875 186.226562 23.226562 186.183594 23.230469 C 185.707031 23.238281 185.242188 23.296875 184.773438 23.367188 C 184.589844 23.390625 184.410156 23.398438 184.226562 23.433594 C 183.765625 23.527344 183.3125 23.683594 182.863281 23.839844 C 182.683594 23.90625 182.5 23.941406 182.320312 24.015625 C 181.867188 24.207031 181.425781 24.46875 180.988281 24.734375 C 180.820312 24.832031 180.648438 24.902344 180.488281 25.015625 C 179.890625 25.421875 179.308594 25.898438 178.738281 26.464844 C 177.878906 27.324219 177.015625 28.117188 176.152344 28.878906 C 176.011719 29.003906 175.867188 29.136719 175.726562 29.257812 C 174.910156 29.964844 174.097656 30.636719 173.289062 31.292969 C 173.070312 31.464844 172.859375 31.636719 172.644531 31.808594 C 171.917969 32.382812 171.191406 32.949219 170.472656 33.507812 C 169.472656 34.28125 168.480469 35.046875 167.492188 35.835938 C 167.484375 35.84375 167.480469 35.847656 167.476562 35.851562 C 169.074219 34.914062 171.742188 34.539062 173.800781 40.210938"/><path stroke-linecap="round" transform="matrix(.0922 0 0 -.0921 -86.793 461.605)" fill="none" stroke-linejoin="round" d="M 2742.816219 4609.944809 L 2742.816219 4609.944809" stroke="#222643" stroke-width="1.2"/><path fill="#FCDDC7" d="M 246.238281 124.59375 C 245.960938 124.242188 245.664062 124.011719 245.371094 123.726562 C 243.90625 122.878906 242.285156 122.085938 240.558594 121.324219 C 238.261719 121.066406 236.472656 121.804688 236.472656 121.804688 C 236.613281 121.148438 236.710938 120.519531 236.824219 119.882812 C 221.183594 115.058594 172.585938 111.90625 144.980469 119.957031 C 145.089844 120.574219 145.183594 121.175781 145.316406 121.804688 C 145.316406 121.804688 143.203125 120.894531 140.601562 121.398438 C 139.734375 121.71875 138.902344 122.054688 138.09375 122.40625 C 137.226562 122.914062 136.363281 123.578125 135.550781 124.59375 C 131.363281 129.828125 136.945312 131.222656 138.339844 135.761719 C 139.734375 140.292969 142.523438 146.226562 149.035156 146.226562 C 149.035156 146.226562 164.628906 184.550781 190.894531 184.550781 C 217.160156 184.550781 232.753906 146.226562 232.753906 146.226562 C 239.265625 146.226562 242.054688 140.292969 243.449219 135.761719 C 244.847656 131.222656 250.425781 129.828125 246.238281 124.59375"/><path fill="#161A22" d="M 232.121094 125.59375 C 231.191406 133.117188 226.355469 136.039062 217.179688 136.679688 C 208.003906 137.320312 200.796875 133.589844 199.5 128.46875 C 197.570312 120.828125 205.875 118.578125 215.050781 117.9375 C 224.226562 117.300781 232.945312 118.910156 232.121094 125.59375 Z M 181.929688 128.273438 C 180.503906 133.449219 173.261719 137.3125 164.101562 136.757812 C 154.933594 136.207031 150.148438 133.300781 149.355469 125.695312 C 148.65625 118.953125 157.402344 117.230469 166.566406 117.785156 C 175.734375 118.339844 183.976562 120.828125 181.929688 128.273438 Z M 239.566406 116.671875 C 234.066406 115.882812 228.578125 115.476562 223.230469 115.476562 C 206.359375 115.476562 197.003906 119.324219 196.617188 119.488281 C 193.457031 120.808594 191.113281 120.675781 190.910156 120.667969 L 190.472656 120.589844 L 190.328125 120.671875 C 189.648438 120.683594 187.542969 120.621094 184.835938 119.488281 C 184.453125 119.324219 175.09375 115.476562 158.222656 115.476562 C 152.878906 115.476562 147.378906 115.882812 141.882812 116.671875 L 141.050781 116.792969 C 141.050781 116.792969 145.519531 121.597656 146.046875 126.074219 C 146.589844 130.667969 148.875 136.925781 162.347656 138.175781 C 172.382812 139.097656 180.78125 136.402344 184.082031 131.296875 C 184.757812 130.25 185.25 129.183594 185.695312 128.238281 C 186.300781 126.945312 186.867188 125.722656 187.59375 125.300781 C 188.652344 124.695312 190.128906 124.648438 190.617188 124.648438 L 191.089844 124.652344 C 191.667969 124.667969 192.929688 124.769531 193.859375 125.300781 C 194.589844 125.722656 195.160156 126.945312 195.761719 128.242188 C 196.203125 129.183594 196.695312 130.25 197.375 131.296875 C 200.230469 135.71875 206.878906 138.363281 215.152344 138.363281 C 216.433594 138.363281 217.769531 138.296875 219.109375 138.175781 C 232.578125 136.925781 234.863281 130.667969 235.40625 126.074219 C 235.9375 121.597656 240.402344 116.792969 240.402344 116.792969 L 239.566406 116.671875"/><path fill="#B9B7B6" d="M 67.644531 196.539062 C 67.816406 196.242188 68.011719 195.972656 68.210938 195.699219 C 68.011719 195.972656 67.820312 196.242188 67.644531 196.539062"/><path fill="#B9B7B6" d="M 72.570312 191.984375 C 72.714844 191.914062 72.851562 191.832031 72.996094 191.765625 C 72.851562 191.832031 72.71875 191.914062 72.570312 191.984375"/><path fill="#B9B7B6" d="M 68.78125 194.953125 C 68.980469 194.710938 69.179688 194.464844 69.402344 194.242188 C 69.179688 194.464844 68.984375 194.710938 68.78125 194.953125"/><path fill="#B9B7B6" d="M 67.644531 196.539062 C 66.550781 198.421875 65.957031 200.625 66.105469 202.972656 L 73.191406 314.578125 C 88.359375 328.21875 105.996094 339.152344 125.335938 346.707031 L 249.890625 346.707031 C 251.566406 346.050781 253.242188 345.402344 254.890625 344.695312 C 156.441406 333.171875 79.246094 272.503906 67.644531 196.539062"/><path fill="#B9B7B6" d="M 74.878906 191.15625 C 75.046875 191.117188 75.214844 191.085938 75.386719 191.054688 C 75.214844 191.082031 75.046875 191.117188 74.878906 191.15625"/><path fill="#B9B7B6" d="M 70.65625 193.144531 C 70.859375 192.988281 71.074219 192.855469 71.285156 192.714844 C 71.070312 192.851562 70.863281 192.988281 70.65625 193.144531"/><path fill="#D2D1CF" d="M 188.207031 287.695312 C 178.859375 287.695312 171.277344 280.121094 171.277344 270.777344 C 171.277344 261.433594 178.859375 253.859375 188.207031 253.859375 C 197.5625 253.859375 205.140625 261.433594 205.140625 270.777344 C 205.140625 280.121094 197.5625 287.695312 188.207031 287.695312 Z M 309.023438 200.5625 C 308.210938 195.089844 303.484375 190.828125 297.710938 190.828125 L 77.515625 190.828125 C 76.785156 190.828125 76.078125 190.921875 75.386719 191.054688 C 75.214844 191.085938 75.046875 191.117188 74.878906 191.15625 C 74.230469 191.308594 73.597656 191.507812 72.996094 191.765625 C 72.851562 191.832031 72.714844 191.914062 72.570312 191.984375 C 72.121094 192.203125 71.695312 192.441406 71.285156 192.714844 C 71.074219 192.855469 70.859375 192.988281 70.65625 193.144531 C 70.214844 193.480469 69.792969 193.84375 69.402344 194.242188 C 69.179688 194.464844 68.980469 194.710938 68.78125 194.953125 C 68.578125 195.195312 68.386719 195.441406 68.210938 195.699219 C 68.011719 195.972656 67.816406 196.242188 67.644531 196.539062 C 79.246094 272.503906 156.441406 333.171875 254.890625 344.695312 C 272.277344 337.261719 288.175781 327.035156 302.035156 314.578125 L 309.121094 202.972656 C 309.171875 202.152344 309.136719 201.34375 309.023438 200.5625"/><path fill="#716F6E" d="M 173.128906 357.777344 L 202.097656 357.777344 C 218.832031 356.378906 234.875 352.570312 249.890625 346.707031 L 125.335938 346.707031 C 140.351562 352.570312 156.394531 356.378906 173.128906 357.777344"/><path fill="#FFF" d="M 188.207031 253.859375 C 178.859375 253.859375 171.277344 261.433594 171.277344 270.777344 C 171.277344 280.121094 178.859375 287.695312 188.207031 287.695312 C 197.5625 287.695312 205.140625 280.121094 205.140625 270.777344 C 205.140625 261.433594 197.5625 253.859375 188.207031 253.859375"/></svg>