<svg xmlns="http://www.w3.org/2000/svg" width="375" viewBox="0 0 375 375" height="375" version="1.0"><defs><clipPath id="a"><path d="M 14.8125 14.8125 L 360.5625 14.8125 L 360.5625 360.5625 L 14.8125 360.5625 Z M 14.8125 14.8125"/></clipPath></defs><g clip-path="url(#a)"><path fill="#382B73" d="M 360.5625 187.6875 C 360.5625 283.164062 283.164062 360.5625 187.6875 360.5625 C 92.210938 360.5625 14.8125 283.164062 14.8125 187.6875 C 14.8125 92.210938 92.210938 14.8125 187.6875 14.8125 C 283.164062 14.8125 360.5625 92.210938 360.5625 187.6875"/></g><path fill="#473080" d="M 335.351562 187.6875 C 335.351562 269.242188 269.238281 335.351562 187.6875 335.351562 C 106.132812 335.351562 40.023438 269.242188 40.023438 187.6875 C 40.023438 106.136719 106.132812 40.023438 187.6875 40.023438 C 269.238281 40.023438 335.351562 106.136719 335.351562 187.6875"/><path fill="#382B73" d="M 163.503906 110.636719 C 153.535156 110.636719 144.929688 117.011719 140.878906 126.242188 C 140.015625 128.210938 138.160156 129.371094 136.175781 129.207031 C 133.398438 128.980469 130.492188 129.253906 127.503906 130.195312 C 118.050781 133.171875 110.878906 142 109.484375 152.671875 C 108.910156 157.09375 109.3125 161.335938 110.476562 165.203125 C 111.296875 167.933594 110.128906 170.957031 107.667969 171.941406 C 98.042969 175.785156 91.164062 185.886719 91.164062 197.773438 C 91.164062 209.65625 98.042969 219.757812 107.667969 223.605469 C 110.128906 224.585938 111.296875 227.613281 110.476562 230.339844 C 109.3125 234.207031 108.910156 238.449219 109.484375 242.875 C 110.878906 253.546875 118.050781 262.375 127.503906 265.347656 C 130.492188 266.289062 133.398438 266.566406 136.175781 266.335938 C 138.160156 266.171875 140.015625 267.335938 140.878906 269.300781 C 144.929688 278.53125 153.535156 284.90625 163.503906 284.90625 C 177.371094 284.90625 188.609375 272.585938 188.609375 257.382812 C 188.609375 257.195312 188.589844 257.015625 188.582031 256.832031 C 188.59375 256.539062 188.609375 256.246094 188.609375 255.949219 L 188.609375 139.59375 C 188.609375 139.300781 188.59375 139.007812 188.582031 138.714844 C 188.589844 138.527344 188.609375 138.347656 188.609375 138.160156 C 188.609375 122.960938 177.371094 110.636719 163.503906 110.636719"/><path fill="#382B73" d="M 287.882812 161.308594 C 287.882812 157.003906 284.390625 153.507812 280.082031 153.507812 L 263.652344 153.507812 L 263.652344 169.109375 L 280.082031 169.109375 C 284.390625 169.109375 287.882812 165.617188 287.882812 161.308594"/><path fill="#382B73" d="M 280.082031 189.972656 L 263.652344 189.972656 L 263.652344 205.570312 L 280.082031 205.570312 C 284.390625 205.570312 287.882812 202.078125 287.882812 197.773438 C 287.882812 193.464844 284.390625 189.972656 280.082031 189.972656"/><path fill="#382B73" d="M 280.082031 226.433594 L 263.652344 226.433594 L 263.652344 242.03125 L 280.082031 242.03125 C 284.390625 242.03125 287.882812 238.539062 287.882812 234.234375 C 287.882812 229.925781 284.390625 226.433594 280.082031 226.433594"/><path fill="#382B73" d="M 245.011719 118.441406 C 245.011719 114.136719 241.519531 110.640625 237.210938 110.640625 C 232.902344 110.640625 229.410156 114.136719 229.410156 118.441406 L 229.410156 134.875 L 245.011719 134.875 L 245.011719 118.441406"/><path fill="#382B73" d="M 229.414062 277.101562 C 229.414062 281.410156 232.902344 284.902344 237.210938 284.902344 C 241.519531 284.902344 245.011719 281.410156 245.011719 277.101562 L 245.011719 260.671875 L 229.414062 260.671875 L 229.414062 277.101562"/><path fill="#382B73" d="M 251.6875 134.875 L 208.550781 134.875 L 208.550781 118.4375 C 208.550781 116.289062 207.675781 114.347656 206.265625 112.921875 C 205.261719 111.917969 203.988281 111.183594 202.554688 110.84375 C 201.636719 110.628906 200.753906 111.308594 200.753906 112.25 L 200.753906 283.269531 C 200.753906 284.214844 201.652344 284.902344 202.570312 284.667969 C 203.953125 284.316406 205.183594 283.59375 206.15625 282.621094 C 207.566406 281.199219 208.441406 279.253906 208.441406 277.105469 L 208.441406 260.671875 L 251.6875 260.671875 C 258.300781 260.671875 263.648438 255.320312 263.648438 248.710938 L 263.648438 146.835938 C 263.648438 140.222656 258.300781 134.875 251.6875 134.875"/><path fill="#EF5A9D" d="M 188.609375 128.078125 C 188.609375 112.878906 177.371094 100.554688 163.503906 100.554688 C 153.535156 100.554688 144.929688 106.925781 140.878906 116.160156 C 140.015625 118.125 138.160156 119.289062 136.175781 119.125 C 133.398438 118.894531 130.492188 119.167969 127.503906 120.109375 C 118.050781 123.085938 110.878906 131.914062 109.484375 142.585938 C 108.910156 147.011719 109.3125 151.253906 110.476562 155.121094 C 111.296875 157.847656 110.128906 160.871094 107.667969 161.855469 C 98.042969 165.703125 91.164062 175.804688 91.164062 187.6875 C 91.164062 199.570312 98.042969 209.671875 107.667969 213.519531 C 110.128906 214.503906 111.296875 217.527344 110.476562 220.253906 C 109.3125 224.121094 108.910156 228.363281 109.484375 232.789062 C 110.878906 243.460938 118.050781 252.289062 127.503906 255.265625 C 130.492188 256.203125 133.398438 256.480469 136.175781 256.25 C 138.160156 256.089844 140.015625 257.25 140.878906 259.214844 C 144.929688 268.449219 153.535156 274.824219 163.503906 274.824219 C 177.371094 274.824219 188.609375 262.5 188.609375 247.296875 C 188.609375 247.113281 188.589844 246.933594 188.585938 246.746094 C 188.59375 246.453125 188.609375 246.160156 188.609375 245.863281 L 188.609375 129.511719 C 188.609375 129.214844 188.59375 128.921875 188.585938 128.628906 C 188.589844 128.445312 188.609375 128.265625 188.609375 128.078125"/><path fill="#E43D91" d="M 188.609375 128.078125 C 188.609375 112.878906 177.371094 100.554688 163.503906 100.554688 C 161.882812 100.554688 160.304688 100.738281 158.769531 101.058594 C 170.363281 103.492188 179.128906 114.65625 179.128906 128.078125 C 179.128906 128.265625 179.105469 128.445312 179.101562 128.628906 C 179.113281 128.921875 179.128906 129.214844 179.128906 129.511719 L 179.128906 245.863281 C 179.128906 246.160156 179.113281 246.453125 179.101562 246.746094 C 179.105469 246.933594 179.128906 247.113281 179.128906 247.296875 C 179.128906 260.71875 170.363281 271.882812 158.769531 274.316406 C 160.304688 274.636719 161.882812 274.824219 163.503906 274.824219 C 177.371094 274.824219 188.609375 262.5 188.609375 247.296875 C 188.609375 247.113281 188.589844 246.933594 188.585938 246.746094 C 188.59375 246.453125 188.609375 246.160156 188.609375 245.863281 L 188.609375 129.511719 C 188.609375 129.214844 188.59375 128.921875 188.585938 128.628906 C 188.589844 128.445312 188.609375 128.265625 188.609375 128.078125"/><path fill="#F06EA9" d="M 109.59375 224.171875 C 109.164062 226.921875 109.097656 229.8125 109.484375 232.789062 C 109.511719 232.988281 109.554688 233.179688 109.582031 233.378906 C 109.792969 232.015625 110.089844 230.679688 110.476562 229.394531 C 111.035156 227.542969 110.65625 225.566406 109.59375 224.171875"/><path fill="#F06EA9" d="M 188.609375 128.078125 C 188.609375 112.878906 177.371094 100.554688 163.503906 100.554688 C 153.535156 100.554688 144.929688 106.925781 140.878906 116.160156 C 140.015625 118.125 138.160156 119.289062 136.175781 119.125 C 133.398438 118.894531 130.492188 119.167969 127.503906 120.109375 C 118.050781 123.085938 110.878906 131.914062 109.484375 142.585938 C 109.101562 145.535156 109.160156 148.402344 109.582031 151.136719 C 111.160156 140.730469 118.226562 132.171875 127.503906 129.25 C 130.492188 128.308594 133.398438 128.035156 136.175781 128.261719 C 138.160156 128.425781 140.015625 127.265625 140.878906 125.296875 C 144.929688 116.066406 153.535156 109.691406 163.503906 109.691406 C 177.371094 109.691406 188.609375 122.015625 188.609375 137.214844 L 188.609375 129.511719 C 188.609375 129.214844 188.59375 128.921875 188.585938 128.628906 C 188.589844 128.445312 188.609375 128.265625 188.609375 128.078125"/><path fill="#F06EA9" d="M 188.609375 138.648438 L 188.609375 137.214844 C 188.609375 137.402344 188.589844 137.582031 188.585938 137.765625 C 188.59375 138.0625 188.609375 138.351562 188.609375 138.648438"/><path fill="#E43D91" d="M 163.503906 250.34375 C 153.535156 250.34375 144.929688 243.96875 140.878906 234.738281 C 140.015625 232.773438 138.160156 231.609375 136.175781 231.773438 C 133.398438 232 130.492188 231.726562 127.503906 230.785156 C 118.054688 227.808594 110.878906 218.980469 109.484375 208.3125 C 108.910156 203.886719 109.3125 199.644531 110.476562 195.777344 C 111.296875 193.050781 110.128906 190.023438 107.667969 189.039062 C 101.605469 186.617188 96.640625 181.714844 93.789062 175.445312 C 92.113281 179.132812 91.164062 183.285156 91.164062 187.6875 C 91.164062 199.570312 98.042969 209.671875 107.667969 213.519531 C 110.128906 214.503906 111.296875 217.527344 110.476562 220.253906 C 109.3125 224.121094 108.910156 228.363281 109.484375 232.789062 C 110.878906 243.460938 118.054688 252.289062 127.503906 255.265625 C 130.492188 256.203125 133.398438 256.480469 136.175781 256.25 C 138.160156 256.085938 140.015625 257.25 140.878906 259.214844 C 144.929688 268.449219 153.535156 274.824219 163.503906 274.824219 C 177.371094 274.824219 188.609375 262.5 188.609375 247.296875 C 188.609375 247.113281 188.589844 246.929688 188.585938 246.746094 C 188.59375 246.453125 188.609375 246.160156 188.609375 245.863281 L 188.609375 222.820312 C 188.609375 238.019531 177.371094 250.34375 163.503906 250.34375"/><path fill="#E43D91" d="M 188.609375 222.820312 L 188.609375 221.386719 C 188.609375 221.683594 188.59375 221.972656 188.585938 222.269531 C 188.589844 222.453125 188.609375 222.632812 188.609375 222.820312"/><path fill="#F06EA9" d="M 154.546875 140.800781 C 154.21875 145.300781 155.125 149.800781 157.226562 153.800781 C 157.886719 155.058594 159.085938 155.761719 160.324219 155.761719 C 160.929688 155.761719 161.542969 155.59375 162.105469 155.238281 C 163.8125 154.15625 164.402344 151.761719 163.414062 149.886719 C 161.625 146.484375 161.152344 142.527344 162.078125 138.742188 C 163.007812 134.957031 165.226562 131.792969 168.332031 129.832031 C 170.039062 128.75 170.628906 126.355469 169.644531 124.480469 C 168.65625 122.609375 166.472656 121.960938 164.761719 123.042969 C 161.007812 125.417969 158.113281 128.953125 156.355469 133.191406 C 148.28125 132.257812 141.972656 124.757812 141.972656 115.664062 C 141.972656 115.203125 141.886719 114.765625 141.75 114.355469 C 141.441406 114.945312 141.148438 115.542969 140.878906 116.160156 C 140.015625 118.125 138.160156 119.285156 136.175781 119.125 C 135.808594 119.09375 135.433594 119.097656 135.058594 119.082031 C 136.4375 130.238281 144.417969 139.109375 154.546875 140.800781 Z M 135.980469 170.152344 C 136.488281 174.726562 138.242188 179.011719 141.117188 182.496094 C 144.796875 186.953125 149.84375 189.574219 155.324219 189.875 C 155.386719 189.878906 155.449219 189.882812 155.507812 189.882812 C 157.398438 189.882812 158.976562 188.253906 159.074219 186.160156 C 159.171875 184 157.652344 182.160156 155.683594 182.054688 C 152.105469 181.855469 148.8125 180.148438 146.414062 177.238281 C 144.207031 174.566406 143.011719 171.164062 142.972656 167.582031 C 145.359375 166.335938 147.640625 164.753906 149.75 162.796875 C 151.257812 161.402344 151.445312 158.929688 150.171875 157.277344 C 148.898438 155.628906 146.644531 155.417969 145.136719 156.816406 C 140.195312 161.402344 133.929688 163.601562 127.480469 163.015625 C 121.039062 162.425781 115.1875 159.117188 111.003906 153.699219 C 110.683594 153.28125 110.296875 152.953125 109.875 152.722656 C 110.046875 153.535156 110.242188 154.335938 110.476562 155.121094 C 111.25 157.691406 110.238281 160.507812 108.058594 161.648438 C 114.015625 167.773438 121.746094 170.917969 129.519531 170.917969 C 131.683594 170.917969 133.847656 170.644531 135.980469 170.152344 Z M 165.464844 177.265625 C 163.582031 177.921875 162.546875 180.125 163.144531 182.1875 C 163.742188 184.246094 165.75 185.382812 167.632812 184.730469 C 175.003906 182.15625 182.667969 183.6875 188.609375 188.125 L 188.609375 179.09375 C 181.636719 175.394531 173.414062 174.492188 165.464844 177.265625 Z M 139.527344 213.597656 C 141.421875 213.597656 143 211.972656 143.09375 209.875 C 143.191406 207.714844 141.675781 205.875 139.707031 205.769531 C 136.125 205.574219 132.835938 203.863281 130.4375 200.957031 C 128.039062 198.050781 126.816406 194.289062 126.996094 190.367188 C 127.09375 188.207031 125.578125 186.367188 123.605469 186.257812 C 121.632812 186.144531 119.957031 187.8125 119.859375 189.972656 C 119.703125 193.394531 120.265625 196.726562 121.4375 199.789062 C 121.183594 200.09375 120.957031 200.433594 120.792969 200.832031 C 118.363281 206.804688 114.101562 211.464844 108.726562 214.148438 C 110.4375 215.472656 111.167969 217.960938 110.476562 220.253906 C 110.296875 220.855469 110.140625 221.464844 109.996094 222.082031 C 116.796875 219.199219 122.355469 213.933594 125.917969 207.066406 C 129.515625 210.992188 134.234375 213.3125 139.347656 213.59375 C 139.410156 213.597656 139.46875 213.597656 139.527344 213.597656 Z M 179.125 219.632812 C 179.027344 221.726562 177.453125 223.351562 175.5625 223.351562 C 175.5 223.351562 175.441406 223.351562 175.378906 223.347656 C 171.664062 223.144531 168.160156 221.851562 165.132812 219.667969 C 155.609375 225.015625 148.363281 233.933594 144.628906 244.992188 C 142.828125 250.332031 141.949219 255.878906 141.972656 261.410156 C 141.582031 260.695312 141.210938 259.96875 140.878906 259.214844 C 140.015625 257.25 138.160156 256.089844 136.175781 256.25 C 135.796875 256.28125 135.414062 256.28125 135.03125 256.292969 C 135.429688 251.558594 136.382812 246.847656 137.929688 242.269531 C 142.003906 230.207031 149.660156 220.320312 159.71875 213.980469 C 157.011719 209.855469 155.65625 204.886719 155.890625 199.730469 C 155.992188 197.570312 157.636719 195.886719 159.636719 196.015625 C 161.609375 196.121094 163.125 197.960938 163.027344 200.121094 C 162.847656 204.042969 164.070312 207.804688 166.46875 210.710938 C 168.867188 213.621094 172.15625 215.328125 175.734375 215.523438 C 177.707031 215.632812 179.222656 217.472656 179.125 219.632812"/><path fill="#EF5A9D" d="M 110.554688 213.125 C 109.960938 213.488281 109.351562 213.835938 108.726562 214.148438 C 109.351562 214.632812 109.839844 215.269531 110.183594 216 C 110.191406 216.023438 110.207031 216.046875 110.21875 216.070312 C 110.300781 216.253906 110.363281 216.445312 110.425781 216.636719 C 110.460938 216.742188 110.496094 216.851562 110.527344 216.960938 C 110.570312 217.125 110.601562 217.289062 110.632812 217.457031 C 110.660156 217.609375 110.679688 217.765625 110.695312 217.921875 C 110.707031 218.066406 110.722656 218.210938 110.722656 218.355469 C 110.730469 218.554688 110.714844 218.753906 110.703125 218.957031 C 110.691406 219.070312 110.691406 219.183594 110.675781 219.300781 C 110.632812 219.621094 110.570312 219.9375 110.476562 220.253906 C 110.296875 220.855469 110.140625 221.464844 109.996094 222.082031 C 111.324219 221.519531 112.585938 220.84375 113.808594 220.105469 C 112.433594 217.972656 111.332031 215.628906 110.554688 213.125"/><path fill="#EF5A9D" d="M 144.628906 244.992188 C 144.953125 244.035156 145.308594 243.101562 145.683594 242.183594 C 143.78125 240.078125 142.1875 237.640625 140.980469 234.953125 C 139.816406 237.289062 138.789062 239.726562 137.929688 242.269531 C 136.382812 246.847656 135.429688 251.558594 135.03125 256.292969 C 135.414062 256.28125 135.796875 256.28125 136.175781 256.25 C 138.160156 256.089844 140.015625 257.25 140.878906 259.214844 C 141.210938 259.96875 141.582031 260.695312 141.972656 261.410156 C 141.949219 255.878906 142.828125 250.332031 144.628906 244.992188"/><path fill="#FFF" d="M 280.082031 159.027344 L 263.652344 159.027344 L 263.652344 143.425781 L 280.082031 143.425781 C 284.390625 143.425781 287.882812 146.917969 287.882812 151.226562 C 287.882812 155.535156 284.390625 159.027344 280.082031 159.027344"/><path fill="#D1D3D4" d="M 280.082031 151.226562 L 263.652344 151.226562 L 263.652344 159.027344 L 280.082031 159.027344 C 284.390625 159.027344 287.882812 155.535156 287.882812 151.226562 C 287.882812 149.804688 287.5 148.472656 286.835938 147.328125 C 285.488281 149.65625 282.96875 151.226562 280.082031 151.226562"/><path fill="#FFF" d="M 280.082031 195.488281 L 263.652344 195.488281 L 263.652344 179.886719 L 280.082031 179.886719 C 284.390625 179.886719 287.882812 183.378906 287.882812 187.6875 C 287.882812 191.996094 284.390625 195.488281 280.082031 195.488281"/><path fill="#D1D3D4" d="M 280.082031 187.6875 L 263.652344 187.6875 L 263.652344 195.488281 L 280.082031 195.488281 C 284.390625 195.488281 287.882812 191.996094 287.882812 187.6875 C 287.882812 186.265625 287.5 184.933594 286.835938 183.785156 C 285.488281 186.121094 282.96875 187.6875 280.082031 187.6875"/><path fill="#FFF" d="M 280.082031 231.949219 L 263.652344 231.949219 L 263.652344 216.347656 L 280.082031 216.347656 C 284.390625 216.347656 287.882812 219.839844 287.882812 224.148438 C 287.882812 228.457031 284.390625 231.949219 280.082031 231.949219"/><path fill="#D1D3D4" d="M 280.082031 224.148438 L 263.652344 224.148438 L 263.652344 231.949219 L 280.082031 231.949219 C 284.390625 231.949219 287.882812 228.457031 287.882812 224.148438 C 287.882812 222.726562 287.5 221.394531 286.835938 220.25 C 285.488281 222.578125 282.96875 224.148438 280.082031 224.148438"/><path fill="#FFF" d="M 208.554688 108.351562 L 208.554688 124.789062 L 200.753906 124.789062 L 200.753906 102.164062 C 200.753906 101.222656 201.640625 100.542969 202.554688 100.761719 C 203.988281 101.097656 205.265625 101.832031 206.265625 102.835938 C 207.675781 104.261719 208.554688 106.203125 208.554688 108.351562"/><path fill="#FFF" d="M 245.011719 108.355469 L 245.011719 124.789062 L 229.414062 124.789062 L 229.414062 108.355469 C 229.414062 104.050781 232.90625 100.558594 237.214844 100.558594 C 241.523438 100.558594 245.011719 104.050781 245.011719 108.355469"/><path fill="#FFF" d="M 208.441406 250.585938 L 208.441406 267.019531 C 208.441406 269.171875 207.566406 271.113281 206.15625 272.539062 C 205.183594 273.511719 203.953125 274.234375 202.570312 274.585938 C 201.652344 274.816406 200.75 274.132812 200.75 273.183594 L 200.75 250.585938 L 208.441406 250.585938"/><path fill="#FFF" d="M 245.011719 267.019531 L 245.011719 250.585938 L 229.414062 250.585938 L 229.414062 267.019531 C 229.414062 271.328125 232.902344 274.820312 237.210938 274.820312 C 241.519531 274.820312 245.011719 271.328125 245.011719 267.019531"/><path fill="#FFF" d="M 251.6875 124.789062 L 200.75 124.789062 L 200.75 250.585938 L 251.6875 250.585938 C 258.296875 250.585938 263.648438 245.234375 263.648438 238.625 L 263.648438 136.75 C 263.648438 130.140625 258.296875 124.789062 251.6875 124.789062"/><path fill="#EF5A9D" d="M 247.652344 134.808594 L 200.75 134.808594 L 200.75 240.570312 L 247.652344 240.570312 C 250.960938 240.570312 253.632812 237.898438 253.632812 234.589844 L 253.632812 140.789062 C 253.632812 137.476562 250.960938 134.808594 247.652344 134.808594"/><path fill="#E43D91" d="M 253.632812 140.789062 L 253.632812 146.769531 C 253.632812 143.457031 250.960938 140.789062 247.652344 140.789062 L 200.75 140.789062 L 200.75 134.808594 L 247.652344 134.808594 C 250.960938 134.808594 253.632812 137.476562 253.632812 140.789062"/><path fill="#E43D91" d="M 221.28125 211.335938 L 200.75 211.335938 L 200.75 176.054688 C 201.929688 176.054688 203.117188 176.589844 203.914062 177.644531 L 205.433594 179.667969 L 216.039062 193.804688 L 223.921875 204.316406 L 224.441406 205.011719 C 226.398438 207.613281 224.539062 211.335938 221.28125 211.335938"/><path fill="#E43D91" d="M 239.414062 134.808594 L 239.414062 179.667969 L 200.753906 179.667969 L 200.753906 172.457031 L 232.203125 172.457031 L 232.203125 134.808594 L 239.414062 134.808594"/><path fill="#E43D91" d="M 253.632812 217.933594 L 253.632812 225.144531 L 205.964844 225.144531 L 205.964844 231.359375 L 200.75 231.359375 L 200.75 217.933594 L 253.632812 217.933594"/><path fill="#E43D91" d="M 227.195312 240.570312 L 219.980469 240.570312 L 219.980469 231.355469 L 227.195312 231.355469 L 227.195312 240.570312"/><path fill="#E43D91" d="M 223.386719 134.808594 L 223.386719 160.851562 L 200.753906 160.851562 L 200.753906 153.636719 L 216.175781 153.636719 L 216.175781 134.808594 L 223.386719 134.808594"/><path fill="#E43D91" d="M 253.632812 208.929688 L 232.199219 208.929688 L 232.199219 186.6875 L 239.414062 186.6875 L 239.414062 201.71875 L 253.632812 201.71875 L 253.632812 208.929688"/><path fill="#E43D91" d="M 216.625 166.355469 C 216.625 168.109375 215.203125 169.535156 213.445312 169.535156 C 211.691406 169.535156 210.265625 168.109375 210.265625 166.355469 C 210.265625 164.597656 211.691406 163.171875 213.445312 163.171875 C 215.203125 163.171875 216.625 164.597656 216.625 166.355469"/><path fill="#E43D91" d="M 236.335938 232.730469 C 236.335938 234.488281 234.910156 235.914062 233.15625 235.914062 C 231.398438 235.914062 229.976562 234.488281 229.976562 232.730469 C 229.976562 230.976562 231.398438 229.550781 233.15625 229.550781 C 234.910156 229.550781 236.335938 230.976562 236.335938 232.730469"/><path fill="#FEDE3A" d="M 223.921875 204.316406 C 223.238281 204.945312 222.335938 205.328125 221.28125 205.328125 L 200.75 205.328125 L 200.75 170.0625 C 201.929688 170.0625 203.121094 170.578125 203.914062 171.632812 L 204.53125 172.457031 L 209.9375 179.667969 L 220.542969 193.804688 L 224.441406 199.003906 C 225.769531 200.769531 225.347656 203.042969 223.921875 204.316406"/><path fill="#F7CB15" d="M 223.921875 204.316406 C 223.238281 204.945312 222.335938 205.328125 221.28125 205.328125 L 200.75 205.328125 L 200.75 193.804688 L 220.542969 193.804688 L 224.441406 199.003906 C 225.769531 200.769531 225.347656 203.042969 223.921875 204.316406"/><path fill="#D1D3D4" d="M 208.441406 250.585938 L 208.441406 260.261719 L 200.75 260.261719 L 200.75 250.585938 L 208.441406 250.585938"/><path fill="#D1D3D4" d="M 244.902344 260.257812 L 229.304688 260.257812 L 229.304688 250.585938 L 244.902344 250.585938 L 244.902344 260.257812"/><path fill="#D1D3D4" d="M 208.441406 115.113281 L 208.441406 124.789062 L 200.75 124.789062 L 200.75 115.113281 L 208.441406 115.113281"/><path fill="#D1D3D4" d="M 244.902344 124.789062 L 229.304688 124.789062 L 229.304688 115.117188 L 244.902344 115.117188 L 244.902344 124.789062"/></svg>