<svg xmlns="http://www.w3.org/2000/svg" width="375" viewBox="0 0 375 375" height="375" version="1.0"><defs><clipPath id="a"><path d="M 97.417969 117 L 277.417969 117 L 277.417969 251.183594 L 97.417969 251.183594 Z M 97.417969 117"/></clipPath></defs><path fill="#87D1E6" d="M 357.722656 196.316406 C 357.722656 290.4375 281.367188 366.71875 187.175781 366.71875 C 92.980469 366.71875 16.628906 290.4375 16.628906 196.316406 C 16.628906 102.195312 92.980469 25.917969 187.1875 25.917969 C 281.390625 25.917969 357.722656 102.210938 357.722656 196.316406 Z M 357.722656 196.316406"/><path fill="#62BADE" d="M 307.78125 316.824219 C 241.164062 383.359375 133.183594 383.359375 66.582031 316.824219 C -0.0195312 250.292969 118.839844 288.484375 206.132812 253.125 C 406.457031 171.960938 241.164062 9.277344 307.78125 75.828125 C 374.394531 142.378906 374.394531 250.269531 307.78125 316.824219 Z M 307.78125 316.824219"/><g clip-path="url(#a)"><path fill="#FFF" d="M 273.105469 168.839844 C 273.082031 168.464844 272.992188 168.09375 272.855469 167.746094 C 269.96875 152.40625 256.792969 142.902344 239.832031 142.902344 C 233.761719 142.902344 225.105469 141.027344 218.347656 153.023438 L 187.566406 153.023438 C 188.023438 147.027344 189.554688 144.257812 191.300781 141.769531 C 193.863281 138.113281 196.773438 133.601562 196.773438 121.460938 C 196.773438 119.386719 195.101562 117.53125 193.03125 117.53125 C 190.957031 117.53125 189.285156 119.113281 189.285156 121.179688 C 189.285156 130.953125 187.378906 134.363281 185.164062 137.519531 C 183.011719 140.589844 180.597656 141.035156 180.046875 153.023438 L 156.472656 153.023438 C 149.714844 141.035156 141.058594 142.902344 134.988281 142.902344 C 118.105469 142.902344 104.464844 153.765625 101.785156 170.171875 C 100.511719 186.789062 97.542969 225.390625 97.542969 226.644531 C 97.542969 239.761719 108.042969 251.171875 120.011719 251.171875 C 130.71875 251.171875 137.683594 247.179688 140.726562 239.429688 C 140.769531 239.359375 140.8125 239.261719 140.84375 239.183594 L 148.578125 221.082031 C 151.714844 223.46875 156.003906 226.398438 161.199219 226.398438 C 170.433594 226.398438 179.003906 218.953125 182.292969 212.960938 L 192.570312 212.960938 C 195.792969 218.953125 204.179688 225.324219 213.640625 225.324219 C 218.695312 225.324219 222.835938 223.984375 226.183594 222.003906 L 234.027344 239.394531 C 234.058594 239.460938 234.09375 239.417969 234.121094 239.496094 C 237.167969 247.234375 244.132812 251.113281 254.835938 251.113281 C 267 251.113281 277.300781 240.300781 277.300781 227.539062 C 277.277344 226.296875 274.363281 186.070312 273.105469 168.839844 Z M 142.476562 188.976562 L 133.492188 188.976562 L 133.492188 196.46875 C 133.492188 198.550781 132.570312 200.214844 130.496094 200.214844 C 128.421875 200.214844 127.5 198.550781 127.5 196.46875 L 127.5 188.976562 L 120.011719 188.976562 C 117.9375 188.976562 116.265625 188.058594 116.265625 185.980469 C 116.265625 183.90625 117.9375 182.980469 120.011719 182.980469 L 127.5 182.980469 L 127.5 173.992188 C 127.5 171.917969 128.421875 170.246094 130.496094 170.246094 C 132.570312 170.246094 133.492188 171.921875 133.492188 173.992188 L 133.492188 182.980469 L 142.476562 182.980469 C 144.550781 182.980469 146.222656 183.90625 146.222656 185.980469 C 146.222656 188.058594 144.550781 188.976562 142.476562 188.976562 Z M 179.921875 188.976562 L 172.433594 188.976562 C 170.359375 188.976562 168.6875 188.058594 168.6875 185.980469 C 168.6875 183.90625 170.359375 182.980469 172.433594 182.980469 L 179.921875 182.980469 C 181.996094 182.980469 183.667969 183.90625 183.667969 185.980469 C 183.667969 188.058594 181.996094 188.976562 179.921875 188.976562 Z M 202.386719 188.976562 L 194.898438 188.976562 C 192.828125 188.976562 191.15625 188.058594 191.15625 185.980469 C 191.15625 183.90625 192.828125 182.980469 194.898438 182.980469 L 202.386719 182.980469 C 204.460938 182.980469 206.132812 183.90625 206.132812 185.980469 C 206.132812 188.058594 204.460938 188.976562 202.386719 188.976562 Z M 224.855469 203.960938 C 220.726562 203.960938 217.367188 200.605469 217.367188 196.46875 C 217.367188 192.34375 220.726562 188.976562 224.855469 188.976562 C 228.988281 188.976562 232.34375 192.34375 232.34375 196.46875 C 232.34375 200.609375 228.988281 203.960938 224.855469 203.960938 Z M 224.855469 181.484375 C 220.726562 181.484375 217.367188 178.132812 217.367188 173.992188 C 217.367188 169.859375 220.726562 166.496094 224.855469 166.496094 C 228.988281 166.496094 232.34375 169.859375 232.34375 173.992188 C 232.34375 178.132812 228.988281 181.484375 224.855469 181.484375 Z M 247.320312 203.960938 C 243.195312 203.960938 239.832031 200.605469 239.832031 196.46875 C 239.832031 192.34375 243.195312 188.976562 247.320312 188.976562 C 251.457031 188.976562 254.808594 192.34375 254.808594 196.46875 C 254.808594 200.609375 251.457031 203.960938 247.320312 203.960938 Z M 247.320312 181.484375 C 243.195312 181.484375 239.832031 178.132812 239.832031 173.992188 C 239.832031 169.859375 243.195312 166.496094 247.320312 166.496094 C 251.457031 166.496094 254.808594 169.859375 254.808594 173.992188 C 254.808594 178.132812 251.457031 181.484375 247.320312 181.484375 Z M 247.320312 181.484375"/></g></svg>