<?xml version="1.0" encoding="iso-8859-1"?>
<!-- Generator: Adobe Illustrator 19.0.0, SVG Export Plug-In . SVG Version: 6.00 Build 0)  -->
<svg version="1.1" id="Layer_1" xmlns="http://www.w3.org/2000/svg" xmlns:xlink="http://www.w3.org/1999/xlink" x="0px" y="0px"
	 viewBox="0 0 512.005 512.005" style="enable-background:new 0 0 512.005 512.005;" xml:space="preserve">
<g>
	<path style="fill:#2C3E50;" d="M255.988,238.347c-4.873,0-8.827-3.946-8.827-8.819v-0.009V79.454c0-4.873,3.955-8.827,8.827-8.827
		c4.873,0,8.827,3.955,8.827,8.827V229.52c0,4.873-3.946,8.827-8.819,8.827C255.997,238.347,255.997,238.347,255.988,238.347z"/>
	<path style="fill:#2C3E50;" d="M264.816,88.281h-17.655c-4.873,0-8.827-3.955-8.827-8.827c0-4.873,3.955-8.827,8.827-8.827h17.655
		c4.873,0,8.827,3.955,8.827,8.827C273.643,84.326,269.688,88.281,264.816,88.281z"/>
</g>
<path style="fill:#2980BA;" d="M112.516,314.793c-12.447-6.329-26.862-7.556-40.2-3.416l-9.71,3.09L39.628,176.555h83.11
	l44.985,77.055v9.013L118.598,317.9L112.516,314.793z"/>
<g>
	<path style="fill:#C03A2B;" d="M426.181,300.316c17.717,0.583,34.303,8.827,45.461,22.598l37.781-36.81
		c3.434-3.425,3.443-8.995,0.018-12.429c-0.009-0.009-0.009-0.009-0.018-0.018l-13.065-7.592c-1.333-0.803-2.86-1.236-4.414-1.236
		H447.19c-3.54,0.009-6.735,2.127-8.121,5.385L426.181,300.316z"/>
	<path style="fill:#C03A2B;" d="M361.926,361.932c-0.035,2.931,0.203,5.853,0.706,8.739l-0.706,0.088H150.068l-0.706-0.088
		c0.503-2.887,0.742-5.808,0.706-8.739c0.035-21.671-11.281-41.771-29.837-52.965c-1.236-0.706-2.472-1.412-3.708-2.03
		l25.864-29.042l11.564-13.065l4.943-5.561l21.186-23.834c3.363-3.778,8.183-5.932,13.241-5.914h92.6
		c3.496-0.009,6.912,1.033,9.798,3.001l101.516,67.618l2.295,4.855C376.73,314.731,361.935,337.135,361.926,361.932z"/>
</g>
<path style="fill:#2C3E50;" d="M423.709,432.551c-35.116-0.071-64.855-25.909-69.834-60.671c-0.574-3.284-0.83-6.612-0.786-9.949
	c-0.009-28.327,16.896-53.936,42.954-65.049c8.757-3.672,18.167-5.57,27.665-5.57c1.139-0.018,2.269,0.044,3.399,0.194
	c38.929,1.836,68.995,34.886,67.15,73.806C492.484,402.979,461.411,432.586,423.709,432.551z"/>
<circle style="fill:#A5A5A4;" cx="423.709" cy="361.923" r="26.482"/>
<path style="fill:#2C2F38;" d="M423.709,441.378c-4.873,0-8.827-3.946-8.827-8.819v-0.009v-8.827c0-4.873,3.955-8.827,8.827-8.827
	c4.873,0,8.827,3.955,8.827,8.827v8.827c0,4.873-3.946,8.827-8.819,8.827C423.718,441.378,423.718,441.378,423.709,441.378z"/>
<path style="fill:#2980BA;" d="M158.895,256.002v3.266l-42.372,47.668c-14.503-7.389-31.329-8.819-46.874-3.972L50.053,185.383
	h67.618L158.895,256.002z"/>
<path style="fill:#C03A2B;" d="M158.895,164.903v11.652c-0.026,4.899-4.016,8.854-8.916,8.827H15.273
	c-4.414,0-8.165-3.231-8.827-7.592L0.09,133.654c-0.689-4.82,2.666-9.286,7.486-9.975c0.441-0.062,0.892-0.097,1.342-0.088h59.232
	c1.121-0.026,2.233,0.185,3.266,0.618l81.919,32.485C156.697,158.027,158.904,161.284,158.895,164.903z"/>
<path style="fill:#2980BA;" d="M284.774,266.472l37.075,26.482c3.964,2.834,4.882,8.351,2.048,12.314
	c-1.66,2.322-4.334,3.699-7.186,3.699h-69.56c-4.873,0-8.827-3.955-8.827-8.827v-26.482c0-4.873,3.955-8.827,8.827-8.827h32.485
	C281.482,264.83,283.274,265.404,284.774,266.472z"/>
<g>
	<path style="fill:#E64C3C;" d="M211.86,273.657c-0.018,4.873-3.955,8.81-8.827,8.827h-52.965c-3.213,0.026-6.179-1.748-7.68-4.59
		l11.564-13.065h49.081C207.905,264.839,211.842,268.784,211.86,273.657z"/>
	<path style="fill:#E64C3C;" d="M203.023,317.794h-79.447c-4.873,0-8.827-3.955-8.827-8.827c0-4.873,3.955-8.827,8.827-8.827h79.447
		c4.873,0,8.827,3.955,8.827,8.827C211.851,313.84,207.896,317.794,203.023,317.794z"/>
</g>
<g>
	<path style="fill:#2C2F38;" d="M423.709,308.967c-4.873,0-8.827-3.946-8.827-8.819v-0.009v-8.827c0-4.873,3.955-8.827,8.827-8.827
		c4.873,0,8.827,3.955,8.827,8.827v8.827c0,4.873-3.946,8.827-8.819,8.827C423.718,308.967,423.718,308.967,423.709,308.967z"/>
	<path style="fill:#2C2F38;" d="M470.406,426.204c-3.937,2.869-9.454,1.995-12.323-1.942c0,0,0-0.009-0.009-0.009l-5.191-7.141
		c-2.851-3.955-1.96-9.472,1.995-12.323c3.937-2.842,9.428-1.969,12.288,1.942l5.191,7.141
		C475.226,417.809,474.361,423.326,470.406,426.204C470.415,426.195,470.415,426.204,470.406,426.204z"/>
	<path style="fill:#2C2F38;" d="M392.575,319.083c-3.937,2.869-9.454,1.995-12.323-1.942c0,0,0-0.009-0.009-0.009l-5.191-7.141
		c-2.851-3.955-1.96-9.472,1.995-12.323c3.937-2.842,9.428-1.969,12.288,1.942l5.191,7.141
		C397.395,310.688,396.53,316.205,392.575,319.083C392.584,319.074,392.584,319.074,392.575,319.083z"/>
	<path style="fill:#2C2F38;" d="M499.272,386.481c-1.501,4.634-6.479,7.177-11.114,5.667h-0.009l-8.395-2.728
		c-4.626-1.527-7.141-6.523-5.614-11.149c1.518-4.599,6.453-7.115,11.07-5.641l8.395,2.728c4.634,1.501,7.177,6.479,5.667,11.114
		C499.272,386.472,499.272,386.472,499.272,386.481z"/>
	<path style="fill:#2C2F38;" d="M373.34,345.565c-1.501,4.634-6.479,7.177-11.114,5.667h-0.009l-8.395-2.728
		c-4.643-1.483-7.203-6.453-5.72-11.096c1.483-4.643,6.453-7.203,11.096-5.72c0.026,0.009,0.053,0.018,0.079,0.026l8.395,2.728
		c4.634,1.501,7.177,6.479,5.667,11.114C373.34,345.557,373.34,345.557,373.34,345.565z"/>
	<path style="fill:#2C2F38;" d="M499.272,337.374c1.509,4.634-1.024,9.613-5.658,11.123h-0.009l-8.395,2.728
		c-4.643,1.483-9.613-1.077-11.096-5.72c-1.474-4.608,1.042-9.551,5.641-11.07l8.395-2.728c4.634-1.509,9.613,1.024,11.123,5.658
		C499.263,337.374,499.272,337.374,499.272,337.374z"/>
	<path style="fill:#2C2F38;" d="M373.34,378.298c1.509,4.634-1.024,9.613-5.658,11.123h-0.009l-8.395,2.728
		c-4.643,1.483-9.613-1.077-11.096-5.72c-1.474-4.608,1.042-9.551,5.641-11.07l8.395-2.728c4.634-1.51,9.613,1.024,11.123,5.658
		C373.34,378.289,373.34,378.289,373.34,378.298z"/>
	<path style="fill:#2C2F38;" d="M470.406,297.65c3.946,2.86,4.82,8.377,1.96,12.323c0,0,0,0.009-0.009,0.009l-5.191,7.141
		c-2.878,3.937-8.404,4.793-12.341,1.916c-3.919-2.869-4.784-8.351-1.942-12.288l5.191-7.141
		C460.943,295.664,466.461,294.79,470.406,297.65L470.406,297.65z"/>
	<path style="fill:#2C2F38;" d="M392.575,404.78c3.946,2.86,4.82,8.377,1.96,12.323c0,0,0,0.009-0.009,0.009l-5.191,7.141
		c-2.878,3.937-8.404,4.793-12.341,1.916c-3.919-2.869-4.784-8.351-1.942-12.288l5.191-7.141
		C383.112,402.785,388.629,401.911,392.575,404.78C392.575,404.771,392.575,404.771,392.575,404.78z"/>
</g>
<path style="fill:#2C3E50;" d="M84.824,432.551c-35.116-0.071-64.855-25.909-69.834-60.671c-0.574-3.284-0.83-6.612-0.786-9.949
	c-0.009-28.327,16.896-53.936,42.954-65.049c8.757-3.672,18.167-5.57,27.665-5.57c1.139-0.018,2.269,0.044,3.399,0.194
	c38.929,1.836,68.995,34.886,67.15,73.806C153.599,402.979,122.526,432.586,84.824,432.551z"/>
<circle style="fill:#A5A5A4;" cx="84.824" cy="361.923" r="26.482"/>
<g>
	<path style="fill:#2C2F38;" d="M84.824,441.378c-4.873,0-8.827-3.946-8.827-8.819v-0.009v-8.827c0-4.873,3.955-8.827,8.827-8.827
		c4.873,0,8.827,3.955,8.827,8.827v8.827c0,4.873-3.946,8.827-8.819,8.827C84.833,441.378,84.824,441.378,84.824,441.378z"/>
	<path style="fill:#2C2F38;" d="M84.824,308.967c-4.873,0-8.827-3.946-8.827-8.819v-0.009v-8.827c0-4.873,3.955-8.827,8.827-8.827
		c4.873,0,8.827,3.955,8.827,8.827v8.827c0,4.873-3.946,8.827-8.819,8.827C84.833,308.967,84.824,308.967,84.824,308.967z"/>
	<path style="fill:#2C2F38;" d="M131.521,426.204c-3.937,2.869-9.454,1.995-12.323-1.942c0,0,0-0.009-0.009-0.009l-5.191-7.141
		c-2.851-3.955-1.96-9.472,1.995-12.323c3.937-2.842,9.428-1.969,12.288,1.942l5.191,7.141
		C136.341,417.809,135.467,423.326,131.521,426.204C131.53,426.195,131.521,426.204,131.521,426.204z"/>
	<path style="fill:#2C2F38;" d="M53.69,319.083c-3.937,2.869-9.454,1.995-12.323-1.942c0,0,0-0.009-0.009-0.009l-5.191-7.141
		c-2.869-3.946-1.995-9.463,1.951-12.332c3.946-2.869,9.463-1.995,12.332,1.951l0,0l5.191,7.141
		c2.869,3.937,1.995,9.454-1.942,12.323C53.699,319.074,53.699,319.074,53.69,319.083z"/>
	<path style="fill:#2C2F38;" d="M160.378,386.481c-1.501,4.634-6.479,7.177-11.114,5.667h-0.009l-8.395-2.728
		c-4.626-1.527-7.141-6.523-5.614-11.149c1.518-4.599,6.453-7.115,11.07-5.641l8.395,2.728c4.634,1.501,7.177,6.479,5.667,11.114
		C160.387,386.472,160.387,386.472,160.378,386.481z"/>
	<path style="fill:#2C2F38;" d="M34.455,345.565c-1.501,4.634-6.479,7.177-11.114,5.667h-0.009l-8.395-2.728
		c-4.643-1.483-7.203-6.453-5.72-11.096c1.483-4.643,6.453-7.203,11.096-5.72c0.026,0.009,0.053,0.018,0.079,0.026l8.395,2.728
		c4.634,1.501,7.177,6.479,5.667,11.114C34.455,345.557,34.455,345.557,34.455,345.565z"/>
	<path style="fill:#2C2F38;" d="M160.378,337.374c1.509,4.634-1.024,9.613-5.658,11.123h-0.009l-8.395,2.728
		c-4.643,1.483-9.613-1.077-11.096-5.72c-1.474-4.608,1.042-9.551,5.641-11.07l8.395-2.728c4.634-1.509,9.613,1.024,11.123,5.658
		C160.378,337.374,160.378,337.374,160.378,337.374z"/>
	<path style="fill:#2C2F38;" d="M34.455,378.298c1.509,4.634-1.024,9.613-5.658,11.123h-0.009l-8.395,2.728
		c-4.626,1.527-9.622-0.989-11.149-5.614c-1.527-4.626,0.989-9.622,5.614-11.149c0.026-0.009,0.053-0.018,0.079-0.026l8.395-2.728
		c4.634-1.51,9.613,1.024,11.123,5.658C34.446,378.289,34.455,378.289,34.455,378.298z"/>
	<path style="fill:#2C2F38;" d="M131.521,297.65c3.946,2.86,4.82,8.377,1.96,12.323c0,0,0,0.009-0.009,0.009l-5.191,7.141
		c-2.878,3.937-8.404,4.793-12.341,1.916c-3.919-2.869-4.784-8.351-1.942-12.288l5.191-7.141
		C122.049,295.664,127.567,294.79,131.521,297.65C131.512,297.65,131.521,297.65,131.521,297.65z"/>
	<path style="fill:#2C2F38;" d="M53.69,404.78c3.946,2.86,4.82,8.377,1.96,12.323c0,0,0,0.009-0.009,0.009l-5.191,7.141
		c-2.878,3.937-8.404,4.793-12.341,1.916c-3.919-2.869-4.784-8.351-1.942-12.288l5.191-7.141
		C44.227,402.785,49.744,401.911,53.69,404.78C53.69,404.771,53.69,404.771,53.69,404.78z"/>
</g>
<g>
</g>
<g>
</g>
<g>
</g>
<g>
</g>
<g>
</g>
<g>
</g>
<g>
</g>
<g>
</g>
<g>
</g>
<g>
</g>
<g>
</g>
<g>
</g>
<g>
</g>
<g>
</g>
<g>
</g>
</svg>
