<?xml version="1.0" encoding="iso-8859-1"?>
<!-- Generator: Adobe Illustrator 19.0.0, SVG Export Plug-In . SVG Version: 6.00 Build 0)  -->
<svg version="1.1" id="Capa_1" xmlns="http://www.w3.org/2000/svg" xmlns:xlink="http://www.w3.org/1999/xlink" x="0px" y="0px"
	 viewBox="0 0 472 472" style="enable-background:new 0 0 472 472;" xml:space="preserve">
<path style="fill:#F6DDCB;" d="M304,204H64c-17.672,0-32-14.328-32-32V36C32,18.328,46.328,4,64,4h240c17.672,0,32,14.328,32,32v136
	C336,189.672,321.672,204,304,204z"/>
<rect x="32" y="156" style="fill:#FFFFFF;" width="304" height="16"/>
<polygon style="fill:#2A60A0;" points="232,252 136,252 160,204 208,204 "/>
<g>
	<rect x="104" y="244" style="fill:#EA7E73;" width="160" height="16"/>
	<rect x="368" y="164" style="fill:#EA7E73;" width="64" height="104"/>
</g>
<rect y="316" style="fill:#EFC062;" width="272" height="128"/>
<g>
	<rect x="24" y="340" style="fill:#2A60A0;" width="32" height="16"/>
	<rect x="72" y="340" style="fill:#2A60A0;" width="32" height="16"/>
	<rect x="120" y="340" style="fill:#2A60A0;" width="32" height="16"/>
	<rect x="168" y="340" style="fill:#2A60A0;" width="32" height="16"/>
	<rect x="216" y="340" style="fill:#2A60A0;" width="32" height="16"/>
	<rect x="48" y="372" style="fill:#2A60A0;" width="32" height="16"/>
	<rect x="96" y="372" style="fill:#2A60A0;" width="32" height="16"/>
	<rect x="144" y="372" style="fill:#2A60A0;" width="32" height="16"/>
	<rect x="192" y="372" style="fill:#2A60A0;" width="32" height="16"/>
	<rect x="24" y="404" style="fill:#2A60A0;" width="32" height="16"/>
	<rect x="72" y="404" style="fill:#2A60A0;" width="32" height="16"/>
	<rect x="120" y="404" style="fill:#2A60A0;" width="32" height="16"/>
	<rect x="168" y="404" style="fill:#2A60A0;" width="32" height="16"/>
	<rect x="216" y="404" style="fill:#2A60A0;" width="32" height="16"/>
	<path style="fill:#2A60A0;" d="M392,364h-16v-36c0-6.616-5.384-12-12-12s-12,5.384-12,12c0,15.44-12.56,28-28,28s-28-12.56-28-28
		V204h16v124c0,6.616,5.384,12,12,12s12-5.384,12-12c0-15.44,12.56-28,28-28s28,12.56,28,28V364z"/>
</g>
<path style="fill:#61CCCC;" d="M384,468L384,468c-17.672,0-32-14.328-32-32v-40c0-17.672,14.328-32,32-32l0,0
	c17.672,0,32,14.328,32,32v40C416,453.672,401.672,468,384,468z"/>
<g>
	<rect x="232" y="4" style="fill:#2A60A0;" width="16" height="152"/>
	<rect x="264" y="36" style="fill:#2A60A0;" width="48" height="16"/>
	<rect x="264" y="68" style="fill:#2A60A0;" width="48" height="16"/>
	<rect x="264" y="100" style="fill:#2A60A0;" width="48" height="16"/>
	<path style="fill:#2A60A0;" d="M90.344,121.656l-32-32c-3.128-3.128-3.128-8.184,0-11.312l32-32l11.312,11.312L75.312,84
		l26.344,26.344L90.344,121.656z"/>
	<path style="fill:#2A60A0;" d="M181.656,121.656l-11.312-11.312L196.688,84l-26.344-26.344l11.312-11.312l32,32
		c3.128,3.128,3.128,8.184,0,11.312L181.656,121.656z"/>
	
		<rect x="87.995" y="67.993" transform="matrix(-0.3848 0.923 -0.923 -0.3848 264.0067 -23.9807)" style="fill:#2A60A0;" width="104" height="16"/>
	<rect x="376" y="388" style="fill:#2A60A0;" width="16" height="24"/>
</g>
<path style="fill:#EA7E73;" d="M448,252h-16v-16h16c4.416,0,8-3.584,8-8v-32c0-4.416-3.584-8-8-8h-16v-16h16
	c13.232,0,24,10.768,24,24v32C472,241.232,461.232,252,448,252z"/>
<g>
</g>
<g>
</g>
<g>
</g>
<g>
</g>
<g>
</g>
<g>
</g>
<g>
</g>
<g>
</g>
<g>
</g>
<g>
</g>
<g>
</g>
<g>
</g>
<g>
</g>
<g>
</g>
<g>
</g>
</svg>
