<?xml version="1.0"?>
<svg xmlns="http://www.w3.org/2000/svg" viewBox="0 0 64 64" width="512" height="512"><path d="m47 30h8v32h-8z" fill="#f73445"/><path d="m33 38h8v24h-8z" fill="#f59536"/><path d="m19 44h8v18h-8z" fill="#fed966"/><path d="m5 49h8v13h-8z" fill="#4ba678"/><path d="m51.00977 24-.002-2a9.0086 9.0086 0 0 0 2.78028-.44043l.61914 1.90234a11.01744 11.01744 0 0 1 -3.39742.53809zm-3.39649-.53174a10.95874 10.95874 0 0 1 -3.06738-1.56006l1.17383-1.61914a8.961 8.961 0 0 0 2.50879 1.27588zm9.8584-1.57226-1.17768-1.61621a9.05143 9.05143 0 0 0 1.99023-1.99219l1.61719 1.17578a11.02009 11.02009 0 0 1 -2.42974 2.43262zm-15.36133-2.41553a10.9416 10.9416 0 0 1 -1.56835-3.06247l1.90039-.62109a8.9346 8.9346 0 0 0 1.28321 2.5039zm19.35449-3.083-1.90235-.61621a9.01591 9.01591 0 0 0 .43751-2.78126l2-.03955v.03955a10.98738 10.98738 0 0 1 -.53516 3.39746zm-21.46484-3.37794v-.01953a11.01485 11.01485 0 0 1 .52734-3.377l1.9043.61328a9.00334 9.00334 0 0 0 -.43164 2.76372zm19.55176-2.833a8.92286 8.92286 0 0 0 -1.28809-2.50146l1.61333-1.18263a10.94128 10.94128 0 0 1 1.5752 3.06006zm-15.84668-2.459-1.61914-1.17382a11.04692 11.04692 0 0 1 2.4248-2.43652l1.18164 1.61328a9.04968 9.04968 0 0 0 -1.9873 1.99707zm12.56055-2.02733a8.93957 8.93957 0 0 0 -2.50977-1.271l.61133-1.9043a10.93229 10.93229 0 0 1 3.0703 1.5542zm-8.07129-1.2544-.623-1.90039a10.97877 10.97877 0 0 1 3.39648-.54492l.00586 2a8.9825 8.9825 0 0 0 -2.77934.44531z" fill="#ffd700"/><circle cx="51" cy="13" fill="#f59536" r="6"/><path d="m51.28613 17a2.71747 2.71747 0 0 1 -2.71386-2.71436h2a.71387.71387 0 1 0 1.42773 0c0-.36767-.03418-.45654-1.0127-.76171-.90332-.28125-2.415-.75293-2.415-2.667a2.71387 2.71387 0 1 1 5.42773 0h-2.00003a.71387.71387 0 1 0 -1.42773 0c0 .36524.03418.45362 1.01074.75782.90429.28222 2.417.7539 2.417 2.67089a2.71748 2.71748 0 0 1 -2.71388 2.71436z" fill="#7c7c7c"/><path d="m7 2h-2v3h-3v2h3v3h2v-3h3v-2h-3z" fill="#f73445"/><path d="m20 5h-3v-3h-2v3h-3v2h3v3h2v-3h3z" fill="#f73445"/><path d="m32 21a3.97778 3.97778 0 0 0 -3.60693 5.702l-5.85682 4.73382a2.9317 2.9317 0 0 0 -4.49957 2.92774l-6.95874 3.4793a3.34779 3.34779 0 1 0 .88538 1.79364l6.95874-3.4793a2.98539 2.98539 0 0 0 4.88763-3.17835l5.86182-4.73791a3.9961 3.9961 0 1 0 2.32849-7.24094z" fill="#88abf2"/></svg>
