<?xml version="1.0" encoding="iso-8859-1"?>
<!-- Generator: Adobe Illustrator 19.0.0, SVG Export Plug-In . SVG Version: 6.00 Build 0)  -->
<svg version="1.1" id="Capa_1" xmlns="http://www.w3.org/2000/svg" xmlns:xlink="http://www.w3.org/1999/xlink" x="0px" y="0px"
	 viewBox="0 0 511.999 511.999" style="enable-background:new 0 0 511.999 511.999;" xml:space="preserve">
<g>
	<path style="fill:#735C4B;" d="M276.665,73.45c11.436,0,20.666,9.231,20.666,20.666s-9.231,20.666-20.666,20.666
		c-11.435,0-20.666-9.231-20.666-20.666S265.23,73.45,276.665,73.45z"/>
	<path style="fill:#735C4B;" d="M255.999,94.116c0,11.436-9.231,20.666-20.666,20.666s-20.666-9.231-20.666-20.666
		s9.231-20.666,20.666-20.666C246.768,73.45,255.999,82.681,255.999,94.116z"/>
	<path style="fill:#735C4B;" d="M221.556,307.665L111.337,438.549c-117.107,0-103.33-61.998-103.33-61.998l89.553-68.887h75.775
		h48.221V307.665z"/>
	<path style="fill:#735C4B;" d="M503.991,376.552c0,0,13.778,61.998-103.33,61.998L290.443,307.665h48.22h75.775L503.991,376.552z"
		/>
</g>
<g>
	<path style="fill:#C29A7F;" d="M414.439,273.221v34.443h-75.775c0-137.773-82.664-192.883-82.664-192.883
		C343.485,114.782,414.439,185.735,414.439,273.221z"/>
	<path style="fill:#C29A7F;" d="M97.559,273.221c0-87.486,70.953-158.44,158.44-158.44c0,0-82.664,55.109-82.664,192.883H97.559
		V273.221z"/>
</g>
<path style="fill:#987964;" d="M255.999,114.782c0,0,82.664,55.109,82.664,192.883h-48.22h-68.887h-48.22
	C173.335,169.892,255.999,114.782,255.999,114.782z"/>
<path style="fill:#534235;" d="M56.228,369.663l80.597-61.998H97.559L8.007,376.552c0,0-13.778,61.998,103.33,61.998l8.323-9.883
	C45.915,416.311,56.228,369.663,56.228,369.663z"/>
<path style="fill:#A7866E;" d="M145.781,300.776v-34.443c0-70.071,45.534-129.494,108.604-150.392
	c1.014-0.751,1.614-1.159,1.614-1.159c-87.486,0-158.44,70.953-158.44,158.44v34.443h39.265L145.781,300.776z"/>
<g>
	<path style="fill:#231F20;" d="M511.335,374.92l-0.593-2.666L421.96,303.96v-30.738c0-43.337-16.611-84.347-46.773-115.474
		l-10.805,10.471c27.427,28.304,42.531,65.595,42.531,105.003v26.921h-60.819c-1.522-68.976-23.75-116.621-42.506-144.756
		c-9.061-13.591-18.119-23.992-25.605-31.511c26.274,3.791,50.831,14.405,71.976,31.254l9.376-11.768
		c-18.417-14.675-39.187-25.048-61.382-30.801c4.292-4.948,6.898-11.395,6.898-18.443c0-15.543-12.645-28.19-28.19-28.19
		c-8.158,0-15.514,3.488-20.666,9.045c-5.152-5.558-12.508-9.045-20.666-9.045c-15.543,0-28.19,12.645-28.19,28.19
		c0,7.078,2.628,13.55,6.952,18.506c-71.29,18.613-124.059,83.558-124.059,160.6v30.739L75.06,315.482l9.174,11.926l15.882-12.217
		h105.267l-97.532,115.818c-29.974-0.344-67.666-5.304-84.57-26.002c-8.038-9.842-8.507-19.889-8.219-24.392l8.012-6.164
		c1.41,4.926,3.851,10.881,8.084,16.808c16.093,22.531,44.989,27.261,66.397,27.261v-15.046c-54.062,0-60.496-31.635-61.26-39.193
		l31.404-24.157l-9.174-11.926L1.256,372.254l-0.592,2.666c-0.185,0.83-4.34,20.522,10.662,39.225
		c16.994,21.185,50.643,31.927,100.01,31.927h3.5l110.218-130.884h61.887l49.949,59.316l11.51-9.691l-41.789-49.625h105.266
		l64.073,49.286c0.16,1.962,0.351,9.849-5.81,17.122c-8.305,9.805-25.185,14.986-48.816,14.986v15.046
		c28.595,0,48.881-6.832,60.296-20.308c4.628-5.464,7.03-11.187,8.244-16.144l7.06,5.431c0.291,4.541-0.19,14.57-8.214,24.395
		c-16.904,20.698-54.596,25.658-84.569,26.002l-45.934-54.546l-11.51,9.691l50.461,59.921h3.5
		c49.369,0,83.017-10.743,100.011-31.928C515.676,395.442,511.519,375.748,511.335,374.92z M276.665,80.973
		c7.248,0,13.144,5.896,13.144,13.144c0,7.248-5.896,13.143-13.144,13.143c-7.248,0-13.143-5.896-13.143-13.143
		S269.418,80.973,276.665,80.973z M235.333,80.973c7.247,0,13.143,5.896,13.143,13.144c0,7.248-5.896,13.143-13.143,13.143
		s-13.144-5.896-13.144-13.143S228.086,80.973,235.333,80.973z M105.082,300.142v-26.921c0-75.734,56.077-138.608,128.887-149.304
		c-7.478,7.516-16.518,17.902-25.563,31.468c-18.757,28.135-40.984,75.78-42.506,144.756H105.082z M180.953,300.142
		c0.154-6.681,0.516-13.144,1.052-19.398h60.216v-15.046h-58.549c6.418-46.493,22.676-79.923,36.811-101.302
		c14.242-21.539,28.627-34.588,35.515-40.173c6.887,5.585,21.273,18.634,35.514,40.173c17.412,26.332,38.033,70.955,39.532,135.745
		L180.953,300.142L180.953,300.142z"/>
	<rect x="255.996" y="265.696" style="fill:#231F20;" width="13.777" height="15.046"/>
</g>
<rect x="283.55" y="265.696" style="fill:#FFFFFF;" width="13.777" height="15.046"/>
<polygon style="fill:#231F20;" points="366.218,251.921 366.218,266.966 379.995,266.966 379.995,280.744 393.772,280.744 
	393.772,265.699 379.995,265.699 379.995,251.921 "/>
<polygon style="fill:#FFFFFF;" points="132.003,265.699 118.226,265.699 118.226,280.744 132.003,280.744 132.003,266.966 
	145.781,266.966 145.781,251.921 132.003,251.921 "/>
<g>
</g>
<g>
</g>
<g>
</g>
<g>
</g>
<g>
</g>
<g>
</g>
<g>
</g>
<g>
</g>
<g>
</g>
<g>
</g>
<g>
</g>
<g>
</g>
<g>
</g>
<g>
</g>
<g>
</g>
</svg>
