<?xml version="1.0" encoding="iso-8859-1"?>
<!-- Generator: Adobe Illustrator 19.0.0, SVG Export Plug-In . SVG Version: 6.00 Build 0)  -->
<svg version="1.1" id="Capa_1" xmlns="http://www.w3.org/2000/svg" xmlns:xlink="http://www.w3.org/1999/xlink" x="0px" y="0px"
	 viewBox="0 0 512 512" style="enable-background:new 0 0 512 512;" xml:space="preserve">
<path style="fill:#FFB69E;" d="M128.93,157.434c-10.571,0-19.867-7.686-21.566-18.457c-1.882-11.926,6.261-23.119,18.188-25
	l93.805-14.798l54.068-58.732c8.177-8.882,22.007-9.455,30.89-1.277c8.882,8.177,9.455,22.007,1.277,30.89l-59.225,64.334
	c-3.34,3.627-7.807,6.019-12.678,6.788l-101.326,15.985C131.21,157.346,130.063,157.434,128.93,157.434z"/>
<path style="fill:#55879B;" d="M429.042,93.712c-5.796,0-10.493-4.698-10.493-10.493V70.79c0-5.795,4.697-10.493,10.493-10.493
	s10.493,4.698,10.493,10.493v12.428C439.535,89.013,434.838,93.712,429.042,93.712z"/>
<path style="fill:#5F6E9B;" d="M69.215,512c-3.33,0-6.714-0.638-9.983-1.985c-13.396-5.52-19.781-20.853-14.262-34.249
	L88.679,369.68l3.305-78.959c0.606-14.475,12.833-25.719,27.306-25.114c14.476,0.606,25.719,12.831,25.114,27.307l-3.498,83.581
	c-0.128,3.057-0.789,6.067-1.955,8.896l-45.47,110.363C89.309,505.88,79.527,512,69.215,512z"/>
<path style="fill:#414B82;" d="M180.555,511.909c-1.801,0-3.629-0.187-5.462-0.575c-14.173-3.002-23.231-16.925-20.229-31.099
	l24.193-114.243l-32.466-88.519c-4.99-13.602,1.993-28.673,15.595-33.662c13.603-4.989,28.672,1.994,33.661,15.594l35.066,95.605
	c1.698,4.63,2.058,9.644,1.036,14.469l-25.757,121.626C203.579,503.448,192.685,511.909,180.555,511.909z"/>
<path style="fill:#FA870A;" d="M207.743,291.818H91.95V134.787c0-16.904,13.702-30.606,30.606-30.606h54.58
	c16.904,0,30.606,13.702,30.606,30.606V291.818z"/>
<circle style="fill:#FFB69E;" cx="150.087" cy="45.305" r="45.305"/>
<path style="fill:#6C9BAA;" d="M451.526,113.637H176.307c-9.659,0-17.489-7.83-17.489-17.489s7.831-17.489,17.489-17.489h275.219
	c9.659,0,17.489,7.83,17.489,17.489S461.184,113.637,451.526,113.637z"/>
<path style="fill:#A03C19;" d="M305.933,99.646l-135.476,50.093c-4.696,1.736-9.944,1.066-14.052-1.795
	c-4.108-2.861-6.557-7.551-6.557-12.558V93.963c0-8.451,6.851-15.302,15.302-15.302h140.783V99.646z"/>
<path style="fill:#FFB69E;" d="M316.804,121.559c-1.22,2.041-2.795,3.915-4.719,5.527l-66.917,56.127
	c-5.609,4.705-13.199,6.289-20.224,4.221l-102.129-30.072c-11.582-3.41-18.206-15.564-14.795-27.146
	c3.403-11.584,15.564-18.206,27.146-14.795l90.885,26.761l57.937-48.595c9.251-7.759,23.039-6.549,30.798,2.701
	C320.931,103.616,321.449,113.791,316.804,121.559z"/>
<path style="fill:#FFA50A;" d="M181.569,129.085l-46.403-13.664c-11.582-3.41-23.742,3.211-27.146,14.795
	c-3.41,11.582,3.213,23.735,14.795,27.146l47.256,13.915L181.569,129.085z"/>
<g>
</g>
<g>
</g>
<g>
</g>
<g>
</g>
<g>
</g>
<g>
</g>
<g>
</g>
<g>
</g>
<g>
</g>
<g>
</g>
<g>
</g>
<g>
</g>
<g>
</g>
<g>
</g>
<g>
</g>
</svg>
