<svg id="icons" enable-background="new 0 0 64 64" height="512" viewBox="0 0 64 64" width="512" xmlns="http://www.w3.org/2000/svg"><path d="m63 44c0 .549-.45 1-1 1h-13c-.55 0-1-.451-1-1v-12c0-.551.45-1 1-1h13c.55 0 1 .449 1 1z" fill="#ccd1d9"/><path d="m16 44c0 .549-.45 1-1 1h-13c-.55 0-1-.451-1-1v-10c0-.551.45-1 1-1h13c.55 0 1 .449 1 1z" fill="#5d9cec"/><path d="m7 41 1.939 2.59-.939 1.41h-4z" fill="#ccd1d9"/><path d="m29 54 3-1 3 1 2-1.99 4-.01c3.32 0 6 2.689 6 6v3h-30v-3c0-3.311 2.689-6 6-6l4 .01z" fill="#e6e9ed"/><path d="m41 52-2.864.006c3.255.074 5.861 2.73 5.861 5.994v3h3.003v-3c0-3.311-2.68-6-6-6z" fill="#ccd1d9"/><path d="m41 37.01h2v.99.01c0 4.27-2.44 7.969-6 9.789-1.5.771-3.2 1.201-5 1.201s-3.5-.43-5-1.201c-3.561-1.82-6-5.52-6-9.799v-.99h2c0 1.1.9 2 2 2h14c1.1 0 2-.901 2-2z" fill="#eac6bb"/><path d="m20 32c0-.551.45-1 1-1h14 2 6c.55 0 1 .449 1 1v4.01c0 .549-.45 1-1 1h-6c-.55 0-1.45 0-2 0h-14c-.55 0-1-.451-1-1z" fill="#545c66"/><path d="m41 37.01c0 .746-.419 1.393-1.029 1.736-.263 3.955-2.62 7.338-5.974 9.053-1.075.553-2.255.922-3.499 1.09.492.068.992.111 1.502.111 1.8 0 3.5-.43 5-1.201 3.56-1.82 6-5.52 6-9.789v-.01-.99z" fill="#d3b1a9"/><path d="m41 31v6.01c0 1.1-.9 2-2 2h-14c-1.1 0-2-.9-2-2v-6.01c0-1.1.9-2 2-2h14c1.1 0 2 .9 2 2z" fill="#656d78"/><path d="m37 52v.01l-2 1.99-3-1-3 1-2-1.99v-4.211c1.5.771 3.2 1.201 5 1.201s3.5-.43 5-1.201z" fill="#f5f7fa"/><path d="m15.756 44.633-3.756-5.633-3.061 4.59-.939 1.41h7c.307 0 .571-.148.756-.367z" fill="#e6e9ed"/><path d="m43 31h-2c0-1.1-.9-2-2-2h-14c-1.1 0-2 .9-2 2h-2v-2c0-4.971 4.03-9 9-9h8v4c2.77 0 5 2.24 5 5z" fill="#965353"/><path d="m41 31h2v-2c0-2.76-2.23-5-5-5v-4h-3v4c0 1.656 1.343 3 3 3 1.103 0 2 .896 2 2v.279c.594.348 1 .987 1 1.721z" fill="#844747"/><path d="m48 34h15v11h-15z" fill="#e6e9ed"/><g fill="#ac92ec"><path d="m50 18h5v5h-5z"/><path d="m42 4h10v10h-10z"/><path d="m33 8h4v4h-4z"/></g><path d="m20.479 11.99-.019.01h-6.46c-1.1 0-2-.891-2-2 0-1.1.9-2 2-2h3.64c1.29 1.029 2.28 2.4 2.839 3.99z" fill="#a0d468"/><path d="m8 18c1.11 0 2 .9 2 2 0 1.109-.89 2-2 2h-1.64-.01c-1.29-1.031-2.279-2.41-2.83-4z" fill="#a0d468"/><path d="m14 8c-1.1 0-2 .9-2 2 0 1.109.9 2 2 2h6.46l.02-.01c.34.94.52 1.949.52 3.01 0 4.969-4.03 9-9 9-2.14 0-4.1-.75-5.64-2h1.64c1.11 0 2-.891 2-2 0-1.1-.89-2-2-2h-4.48c-.34-.93-.52-1.941-.52-3 0-4.971 4.03-9 9-9 2.14 0 4.1.75 5.64 2z" fill="#4a89dc"/><path d="m59 39h-6.917c-.553 0-1-.447-1-1s.447-1 1-1h6.917c.553 0 1 .447 1 1s-.447 1-1 1z" fill="#ccd1d9"/><path d="m56 42h-3.917c-.553 0-1-.447-1-1s.447-1 1-1h3.917c.553 0 1 .447 1 1s-.447 1-1 1z" fill="#ccd1d9"/><path d="m5.03 38c-.553 0-1.005-.447-1.005-1s.442-1 .994-1h.011c.552 0 1 .447 1 1s-.448 1-1 1z" fill="#ffce54"/><path d="m52 15h-10c-.553 0-1-.447-1-1v-10c0-.553.447-1 1-1h10c.553 0 1 .447 1 1v10c0 .553-.447 1-1 1zm-9-2h8v-8h-8z" fill="#ac92ec"/><path d="m55 24h-5c-.553 0-1-.447-1-1v-5c0-.553.447-1 1-1h5c.553 0 1 .447 1 1v5c0 .553-.447 1-1 1zm-4-2h3v-3h-3z" fill="#ac92ec"/><path d="m37 13h-4c-.553 0-1-.447-1-1v-4c0-.553.447-1 1-1h4c.553 0 1 .447 1 1v4c0 .553-.447 1-1 1zm-3-2h2v-2h-2z" fill="#ac92ec"/><path d="m37 35.002h-10c-.553 0-1-.447-1-1s.447-1 1-1h10c.553 0 1 .447 1 1s-.447 1-1 1z" fill="#545c66"/></svg>